<svg xmlns="http://www.w3.org/2000/svg" xmlns:xlink="http://www.w3.org/1999/xlink" version="1.2" width="210.00mm" height="297.00mm" viewBox="0.0000 -0.0000 79.6677 112.6729">
<style type="text/css">
<![CDATA[
tspan { white-space: pre; }
]]>
</style>
<g transform="translate(29.7957, 5.2093)">
<text font-family="serif" font-weight="bold" font-size="3.4925" text-anchor="start" fill="currentColor">
<tspan>John Kanaka</tspan>
</text>
</g>
<g transform="translate(3.7937, 12.5421)">
<rect x="68.6015" y="-0.0890" width="1.9587" height="0.1781" ry="0.0890" fill="currentColor"/>
</g>
<g transform="translate(3.7937, 13.5421)">
<rect x="68.6015" y="-0.0890" width="1.9587" height="0.1781" ry="0.0890" fill="currentColor"/>
</g>
<g transform="translate(3.7937, 14.5421)">
<rect x="68.6015" y="-0.0890" width="1.9587" height="0.1781" ry="0.0890" fill="currentColor"/>
</g>
<g transform="translate(3.7937, 12.5421)">
<rect x="65.7273" y="-0.0890" width="1.9587" height="0.1781" ry="0.0890" fill="currentColor"/>
</g>
<g transform="translate(3.7937, 13.5421)">
<rect x="65.7273" y="-0.0890" width="1.9587" height="0.1781" ry="0.0890" fill="currentColor"/>
</g>
<g transform="translate(3.7937, 12.5421)">
<rect x="62.8661" y="-0.0890" width="1.9587" height="0.1781" ry="0.0890" fill="currentColor"/>
</g>
<g transform="translate(3.7937, 13.5421)">
<rect x="62.8661" y="-0.0890" width="1.9587" height="0.1781" ry="0.0890" fill="currentColor"/>
</g>
<g transform="translate(3.7937, 12.5421)">
<rect x="60.0049" y="-0.0890" width="1.9587" height="0.1781" ry="0.0890" fill="currentColor"/>
</g>
<g transform="translate(3.7937, 13.5421)">
<rect x="60.0049" y="-0.0890" width="1.9587" height="0.1781" ry="0.0890" fill="currentColor"/>
</g>
<g transform="translate(3.7937, 12.5421)">
<rect x="50.7925" y="-0.0890" width="2.0580" height="0.1781" ry="0.0890" fill="currentColor"/>
</g>
<g transform="translate(3.7937, 13.5421)">
<rect x="50.7925" y="-0.0890" width="2.0580" height="0.1781" ry="0.0890" fill="currentColor"/>
</g>
<g transform="translate(3.7937, 14.5421)">
<rect x="50.7925" y="-0.0890" width="2.0580" height="0.1781" ry="0.0890" fill="currentColor"/>
</g>
<g transform="translate(3.7937, 12.5421)">
<rect x="46.6364" y="-0.0890" width="1.9587" height="0.1781" ry="0.0890" fill="currentColor"/>
</g>
<g transform="translate(3.7937, 13.5421)">
<rect x="46.6364" y="-0.0890" width="1.9587" height="0.1781" ry="0.0890" fill="currentColor"/>
</g>
<g transform="translate(3.7937, 12.5421)">
<rect x="42.9428" y="-0.0890" width="1.9587" height="0.1781" ry="0.0890" fill="currentColor"/>
</g>
<g transform="translate(3.7937, 13.5421)">
<rect x="42.9428" y="-0.0890" width="1.9587" height="0.1781" ry="0.0890" fill="currentColor"/>
</g>
<g transform="translate(3.7937, 12.5421)">
<rect x="40.0816" y="-0.0890" width="1.9587" height="0.1781" ry="0.0890" fill="currentColor"/>
</g>
<g transform="translate(3.7937, 13.5421)">
<rect x="40.0816" y="-0.0890" width="1.9587" height="0.1781" ry="0.0890" fill="currentColor"/>
</g>
<g transform="translate(3.7937, 12.5421)">
<rect x="37.2204" y="-0.0890" width="1.9587" height="0.1781" ry="0.0890" fill="currentColor"/>
</g>
<g transform="translate(3.7937, 13.5421)">
<rect x="37.2204" y="-0.0890" width="1.9587" height="0.1781" ry="0.0890" fill="currentColor"/>
</g>
<g transform="translate(3.7937, 12.5421)">
<rect x="28.0080" y="-0.0890" width="2.0580" height="0.1781" ry="0.0890" fill="currentColor"/>
</g>
<g transform="translate(3.7937, 13.5421)">
<rect x="28.0080" y="-0.0890" width="2.0580" height="0.1781" ry="0.0890" fill="currentColor"/>
</g>
<g transform="translate(3.7937, 12.5421)">
<rect x="24.0058" y="-0.0890" width="1.9587" height="0.1781" ry="0.0890" fill="currentColor"/>
</g>
<g transform="translate(3.7937, 13.5421)">
<rect x="24.0058" y="-0.0890" width="1.9587" height="0.1781" ry="0.0890" fill="currentColor"/>
</g>
<g transform="translate(3.7937, 12.5421)">
<rect x="21.1446" y="-0.0890" width="1.9587" height="0.1781" ry="0.0890" fill="currentColor"/>
</g>
<g transform="translate(3.7937, 13.5421)">
<rect x="21.1446" y="-0.0890" width="1.9587" height="0.1781" ry="0.0890" fill="currentColor"/>
</g>
<g transform="translate(3.7937, 12.5421)">
<rect x="18.2834" y="-0.0890" width="1.9587" height="0.1781" ry="0.0890" fill="currentColor"/>
</g>
<g transform="translate(3.7937, 13.5421)">
<rect x="18.2834" y="-0.0890" width="1.9587" height="0.1781" ry="0.0890" fill="currentColor"/>
</g>
<g transform="translate(3.7937, 12.5421)">
<rect x="14.0776" y="-0.0890" width="1.9587" height="0.1781" ry="0.0890" fill="currentColor"/>
</g>
<g transform="translate(3.7937, 13.5421)">
<rect x="14.0776" y="-0.0890" width="1.9587" height="0.1781" ry="0.0890" fill="currentColor"/>
</g>
<g transform="translate(9.4843, 11.5421)">
<line stroke-linejoin="round" stroke-linecap="round" stroke-width="0.0781" stroke="currentColor" x1="0.0390" y1="0" x2="66.3507" y2="0"/>
</g>
<g transform="translate(9.4843, 10.5421)">
<line stroke-linejoin="round" stroke-linecap="round" stroke-width="0.0781" stroke="currentColor" x1="0.0390" y1="0" x2="66.3507" y2="0"/>
</g>
<g transform="translate(9.4843, 9.5421)">
<line stroke-linejoin="round" stroke-linecap="round" stroke-width="0.0781" stroke="currentColor" x1="0.0390" y1="0" x2="66.3507" y2="0"/>
</g>
<g transform="translate(9.4843, 8.5421)">
<line stroke-linejoin="round" stroke-linecap="round" stroke-width="0.0781" stroke="currentColor" x1="0.0390" y1="0" x2="66.3507" y2="0"/>
</g>
<g transform="translate(9.4843, 7.5421)">
<line stroke-linejoin="round" stroke-linecap="round" stroke-width="0.0781" stroke="currentColor" x1="0.0390" y1="0" x2="66.3507" y2="0"/>
</g>
<g transform="translate(75.7256, 9.5421)">
<rect x="0.0000" y="-2.0000" width="0.1484" height="4.0000" ry="0.0000" fill="currentColor"/>
</g>
<g transform="translate(63.1103, 9.5421)">
<rect x="0.0000" y="-2.0000" width="0.1484" height="4.0000" ry="0.0000" fill="currentColor"/>
</g>
<g transform="translate(53.8851, 9.5421)">
<rect x="0.0000" y="-2.0000" width="0.1484" height="4.0000" ry="0.0000" fill="currentColor"/>
</g>
<g transform="translate(40.3258, 9.5421)">
<rect x="0.0000" y="-2.0000" width="0.1484" height="4.0000" ry="0.0000" fill="currentColor"/>
</g>
<g transform="translate(31.1299, 9.5421)">
<rect x="0.0000" y="-2.0000" width="0.1484" height="4.0000" ry="0.0000" fill="currentColor"/>
</g>
<g transform="translate(74.6981, 17.2162)">
<rect x="0.0000" y="-0.5215" width="0.6600" height="0.1015" ry="0.0312" fill="currentColor"/>
</g>
<g transform="translate(18.1978, 14.0421)">
<path transform="scale(0.0040, -0.0040)" d="M222 135c64 0 104 -35 104 -86c0 -89 -114 -184 -221 -184c-64 0 -105 35 -105 86c0 89 115 184 222 184z" fill="currentColor"/>
</g>
<g transform="translate(10.2843, 10.5421)">
<path transform="scale(0.0040, -0.0040)" d="M264 -594c47 0 165 26 165 246c0 32 -2 64 -5 96c-5 -1 -44 -8 -89 -8c-193 0 -333 178 -333 372c0 178 133 306 251 440c-27 93 -49 170 -49 345c0 116 55 226 150 295c5 4 11 4 16 0c67 -81 132 -246 132 -359c0 -144 -87 -256 -183 -365c20 -69 39 -138 55 -208
c2 0 7 1 15 1c154 0 254 -127 254 -259c0 -112 -73 -212 -180 -245c3 -36 5 -72 5 -108c0 -19 0 -37 -1 -56c-7 -120 -89 -226 -206 -226c-108 0 -195 87 -195 195c0 58 53 104 112 104c54 0 95 -48 95 -104c0 -52 -43 -95 -95 -95c-12 0 -24 4 -35 9c26 -41 70 -70 121 -70
zM459 -205c71 24 117 92 117 166c0 92 -69 184 -179 193c1 -5 45 -212 62 -359zM71 31c0 -146 142 -251 267 -251c1 0 46 0 82 6c-7 63 -28 201 -64 367c-79 -9 -125 -62 -125 -121c0 -44 26 -92 82 -124c4 -4 7 -9 7 -14c0 -11 -9 -21 -20 -21c-14 0 -125 62 -125 186
c0 88 57 173 158 196c-14 60 -30 119 -46 178c-108 -121 -216 -242 -216 -402zM411 1050c-99 -50 -161 -151 -161 -262c0 -59 11 -123 33 -200c82 97 149 198 149 325c0 35 0 69 -21 137z" fill="currentColor"/>
</g>
<g transform="translate(14.4843, 9.5421)">
<path transform="scale(0.0040, -0.0040)" d="M250 261c117 0 180 -102 180 -162c0 -40 -32 -74 -70 -74c-31 0 -76 25 -76 77c0 39 28 78 74 78c2 0 10 1 18 -1c-29 37 -76 60 -126 60c-106 0 -113 -73 -113 -185v-54v-54c0 -112 7 -185 113 -185c82 0 145 68 164 151c1 6 6 9 10 9c6 0 11 -4 11 -11
c0 -23 -51 -171 -185 -171c-59 0 -250 19 -250 261c0 62 18 261 250 261z" fill="currentColor"/>
</g>
<g transform="translate(16.5290, 17.2162)">
<text font-family="serif" font-size="2.4697" text-anchor="start" fill="currentColor">
<tspan>John</tspan>
</text>
</g>
<g transform="translate(19.4528, 9.5421)">
<rect x="-0.0508" y="-0.0000" width="0.1015" height="4.3033" ry="0.0267" fill="currentColor"/>
</g>
<g transform="translate(66.0089, 17.2162)">
<rect x="0.0000" y="-0.5215" width="0.3994" height="0.1015" ry="0.0312" fill="currentColor"/>
</g>
<g transform="translate(22.4036, 14.0421)">
<path transform="scale(0.0040, -0.0040)" d="M222 135c64 0 104 -35 104 -86c0 -89 -114 -184 -221 -184c-64 0 -105 35 -105 86c0 89 115 184 222 184z" fill="currentColor"/>
</g>
<g transform="translate(21.6224, 17.2162)">
<text font-family="serif" font-size="2.4697" text-anchor="start" fill="currentColor">
<tspan>Ka</tspan>
</text>
</g>
<g transform="translate(23.6586, 9.5421)">
<rect x="-0.0508" y="-0.0000" width="0.1015" height="4.3033" ry="0.0267" fill="currentColor"/>
</g>
<g transform="translate(60.0032, 17.2162)">
<rect x="0.0000" y="-0.5215" width="0.6600" height="0.1015" ry="0.0312" fill="currentColor"/>
</g>
<g transform="translate(25.2647, 14.0421)">
<path transform="scale(0.0040, -0.0040)" d="M222 135c64 0 104 -35 104 -86c0 -89 -114 -184 -221 -184c-64 0 -105 35 -105 86c0 89 115 184 222 184z" fill="currentColor"/>
</g>
<g transform="translate(24.7568, 17.2162)">
<text font-family="serif" font-size="2.4697" text-anchor="start" fill="currentColor">
<tspan>na</tspan>
</text>
</g>
<g transform="translate(26.5198, 9.5421)">
<rect x="-0.0508" y="-0.0000" width="0.1015" height="4.3033" ry="0.0267" fill="currentColor"/>
</g>
<g transform="translate(28.1259, 13.5421)">
<path transform="scale(0.0040, -0.0040)" d="M222 135c64 0 104 -35 104 -86c0 -89 -114 -184 -221 -184c-64 0 -105 35 -105 86c0 89 115 184 222 184z" fill="currentColor"/>
</g>
<g transform="translate(27.6179, 17.2162)">
<text font-family="serif" font-size="2.4697" text-anchor="start" fill="currentColor">
<tspan>ka</tspan>
</text>
</g>
<g transform="translate(29.3810, 9.5421)">
<rect x="-0.0508" y="-0.0000" width="0.1015" height="3.8033" ry="0.0267" fill="currentColor"/>
</g>
<g transform="translate(46.1538, 17.2162)">
<rect x="0.0000" y="-0.5215" width="0.5701" height="0.1015" ry="0.0312" fill="currentColor"/>
</g>
<g transform="translate(32.1447, 14.0421)">
<path transform="scale(0.0040, -0.0040)" d="M316 67c0 23 -18 42 -42 42c-40 0 -209 -113 -237 -147c-7 -8 -10 -19 -10 -29c0 -23 18 -42 42 -42c40 0 209 113 237 147c7 8 10 19 10 29zM265 135c38 0 78 -13 78 -68c0 -27 -19 -111 -76 -150c-19 -13 -85 -52 -189 -52c-38 0 -78 13 -78 68c0 27 19 111 76 150
c19 13 85 52 189 52z" fill="currentColor"/>
</g>
<g transform="translate(31.3626, 17.2162)">
<text font-family="serif" font-size="2.4697" text-anchor="start" fill="currentColor">
<tspan>na,</tspan>
</text>
</g>
<g transform="translate(33.4660, 9.5421)">
<rect x="-0.0508" y="-0.0000" width="0.1015" height="4.2316" ry="0.0267" fill="currentColor"/>
</g>
<g transform="translate(43.0195, 17.2162)">
<rect x="0.0000" y="-0.5215" width="0.5360" height="0.1015" ry="0.0312" fill="currentColor"/>
</g>
<g transform="translate(36.1713, 9.5421)">
<path transform="scale(0.0040, -0.0040)" d="M367 0h-359c-4 0 -8 4 -8 8v140c0 4 4 8 8 8h359c4 0 8 -4 8 -8v-140c0 -4 -4 -8 -8 -8z" fill="currentColor"/>
</g>
<g transform="translate(30.3211, 17.2162)">
<rect x="0.0000" y="-0.5215" width="0.6600" height="0.1015" ry="0.0312" fill="currentColor"/>
</g>
<g transform="translate(41.3406, 14.0421)">
<path transform="scale(0.0040, -0.0040)" d="M222 135c64 0 104 -35 104 -86c0 -89 -114 -184 -221 -184c-64 0 -105 35 -105 86c0 89 115 184 222 184z" fill="currentColor"/>
</g>
<g transform="translate(41.0375, 17.2162)">
<text font-family="serif" font-size="2.4697" text-anchor="start" fill="currentColor">
<tspan>tu</tspan>
</text>
</g>
<g transform="translate(42.5956, 9.5421)">
<rect x="-0.0508" y="-0.0000" width="0.1015" height="4.3033" ry="0.0267" fill="currentColor"/>
</g>
<g transform="translate(27.1485, 17.2162)">
<rect x="0.0000" y="-0.5215" width="0.3994" height="0.1015" ry="0.0312" fill="currentColor"/>
</g>
<g transform="translate(44.2018, 14.0421)">
<path transform="scale(0.0040, -0.0040)" d="M222 135c64 0 104 -35 104 -86c0 -89 -114 -184 -221 -184c-64 0 -105 35 -105 86c0 89 115 184 222 184z" fill="currentColor"/>
</g>
<g transform="translate(43.6255, 17.2162)">
<text font-family="serif" font-size="2.4697" text-anchor="start" fill="currentColor">
<tspan>lie</tspan>
</text>
</g>
<g transform="translate(45.4568, 9.5421)">
<rect x="-0.0508" y="-0.0000" width="0.1015" height="4.3033" ry="0.0267" fill="currentColor"/>
</g>
<g transform="translate(47.0629, 14.0421)">
<path transform="scale(0.0040, -0.0040)" d="M222 135c64 0 104 -35 104 -86c0 -89 -114 -184 -221 -184c-64 0 -105 35 -105 86c0 89 115 184 222 184z" fill="currentColor"/>
</g>
<g transform="translate(46.7940, 17.2162)">
<text font-family="serif" font-size="2.4697" text-anchor="start" fill="currentColor">
<tspan>o,</tspan>
</text>
</g>
<g transform="translate(48.3180, 9.5421)">
<rect x="-0.0508" y="-0.0000" width="0.1015" height="4.3033" ry="0.0267" fill="currentColor"/>
</g>
<g transform="translate(50.7566, 13.5421)">
<path transform="scale(0.0040, -0.0040)" d="M222 135c64 0 104 -35 104 -86c0 -89 -114 -184 -221 -184c-64 0 -105 35 -105 86c0 89 115 184 222 184z" fill="currentColor"/>
</g>
<g transform="translate(49.0877, 17.2162)">
<text font-family="serif" font-size="2.4697" text-anchor="start" fill="currentColor">
<tspan>John</tspan>
</text>
</g>
<g transform="translate(52.0116, 9.5421)">
<rect x="-0.0508" y="-0.0000" width="0.1015" height="3.8033" ry="0.0267" fill="currentColor"/>
</g>
<g transform="translate(54.9292, 14.5421)">
<path transform="scale(0.0040, -0.0040)" d="M316 67c0 23 -18 42 -42 42c-40 0 -209 -113 -237 -147c-7 -8 -10 -19 -10 -29c0 -23 18 -42 42 -42c40 0 209 113 237 147c7 8 10 19 10 29zM265 135c38 0 78 -13 78 -68c0 -27 -19 -111 -76 -150c-19 -13 -85 -52 -189 -52c-38 0 -78 13 -78 68c0 27 19 111 76 150
c19 13 85 52 189 52z" fill="currentColor"/>
</g>
<g transform="translate(54.1812, 17.2162)">
<text font-family="serif" font-size="2.4697" text-anchor="start" fill="currentColor">
<tspan>Ka</tspan>
</text>
</g>
<g transform="translate(56.2505, 9.5421)">
<rect x="-0.0508" y="-0.0000" width="0.1015" height="4.7316" ry="0.0267" fill="currentColor"/>
</g>
<g transform="translate(58.9558, 9.5421)">
<path transform="scale(0.0040, -0.0040)" d="M367 0h-359c-4 0 -8 4 -8 8v140c0 4 4 8 8 8h359c4 0 8 -4 8 -8v-140c0 -4 -4 -8 -8 -8z" fill="currentColor"/>
</g>
<g transform="translate(64.1251, 14.0421)">
<path transform="scale(0.0040, -0.0040)" d="M222 135c64 0 104 -35 104 -86c0 -89 -114 -184 -221 -184c-64 0 -105 35 -105 86c0 89 115 184 222 184z" fill="currentColor"/>
</g>
<g transform="translate(63.6171, 17.2162)">
<text font-family="serif" font-size="2.4697" text-anchor="start" fill="currentColor">
<tspan>na</tspan>
</text>
</g>
<g transform="translate(65.3801, 9.5421)">
<rect x="-0.0508" y="-0.0000" width="0.1015" height="4.3033" ry="0.0267" fill="currentColor"/>
</g>
<g transform="translate(66.9863, 14.0421)">
<path transform="scale(0.0040, -0.0040)" d="M222 135c64 0 104 -35 104 -86c0 -89 -114 -184 -221 -184c-64 0 -105 35 -105 86c0 89 115 184 222 184z" fill="currentColor"/>
</g>
<g transform="translate(66.4783, 17.2162)">
<text font-family="serif" font-size="2.4697" text-anchor="start" fill="currentColor">
<tspan>ka</tspan>
</text>
</g>
<g transform="translate(68.2413, 9.5421)">
<rect x="-0.0508" y="-0.0000" width="0.1015" height="4.3033" ry="0.0267" fill="currentColor"/>
</g>
<g transform="translate(69.8474, 14.0421)">
<path transform="scale(0.0040, -0.0040)" d="M222 135c64 0 104 -35 104 -86c0 -89 -114 -184 -221 -184c-64 0 -105 35 -105 86c0 89 115 184 222 184z" fill="currentColor"/>
</g>
<g transform="translate(69.0322, 17.2162)">
<text font-family="serif" font-size="2.4697" text-anchor="start" fill="currentColor">
<tspan>na,</tspan>
</text>
</g>
<g transform="translate(71.1025, 9.5421)">
<rect x="-0.0508" y="-0.0000" width="0.1015" height="4.3033" ry="0.0267" fill="currentColor"/>
</g>
<g transform="translate(72.7216, 14.5421)">
<path transform="scale(0.0040, -0.0040)" d="M222 135c64 0 104 -35 104 -86c0 -89 -114 -184 -221 -184c-64 0 -105 35 -105 86c0 89 115 184 222 184z" fill="currentColor"/>
</g>
<g transform="translate(72.4185, 17.2162)">
<text font-family="serif" font-size="2.4697" text-anchor="start" fill="currentColor">
<tspan>tu</tspan>
</text>
</g>
<g transform="translate(73.9766, 9.5421)">
<rect x="-0.0508" y="-0.0000" width="0.1015" height="4.8033" ry="0.0267" fill="currentColor"/>
</g>
<g transform="translate(3.7937, 24.5421)">
<rect x="66.2038" y="-0.0890" width="1.9587" height="0.1781" ry="0.0890" fill="currentColor"/>
</g>
<g transform="translate(3.7937, 25.5421)">
<rect x="66.2038" y="-0.0890" width="1.9587" height="0.1781" ry="0.0890" fill="currentColor"/>
</g>
<g transform="translate(3.7937, 26.5421)">
<rect x="66.2038" y="-0.0890" width="1.9587" height="0.1781" ry="0.0890" fill="currentColor"/>
</g>
<g transform="translate(3.7937, 24.5421)">
<rect x="61.4176" y="-0.0890" width="1.9587" height="0.1781" ry="0.0890" fill="currentColor"/>
</g>
<g transform="translate(3.7937, 25.5421)">
<rect x="61.4176" y="-0.0890" width="1.9587" height="0.1781" ry="0.0890" fill="currentColor"/>
</g>
<g transform="translate(3.7937, 24.5421)">
<rect x="58.3472" y="-0.0890" width="1.9587" height="0.1781" ry="0.0890" fill="currentColor"/>
</g>
<g transform="translate(3.7937, 25.5421)">
<rect x="58.3472" y="-0.0890" width="1.9587" height="0.1781" ry="0.0890" fill="currentColor"/>
</g>
<g transform="translate(3.7937, 26.5421)">
<rect x="58.3472" y="-0.0890" width="1.9587" height="0.1781" ry="0.0890" fill="currentColor"/>
</g>
<g transform="translate(3.7937, 24.5421)">
<rect x="54.3067" y="-0.0890" width="1.9587" height="0.1781" ry="0.0890" fill="currentColor"/>
</g>
<g transform="translate(3.7937, 25.5421)">
<rect x="54.3067" y="-0.0890" width="1.9587" height="0.1781" ry="0.0890" fill="currentColor"/>
</g>
<g transform="translate(3.7937, 24.5421)">
<rect x="50.7155" y="-0.0890" width="1.9587" height="0.1781" ry="0.0890" fill="currentColor"/>
</g>
<g transform="translate(3.7937, 25.5421)">
<rect x="50.7155" y="-0.0890" width="1.9587" height="0.1781" ry="0.0890" fill="currentColor"/>
</g>
<g transform="translate(3.7937, 24.5421)">
<rect x="45.8610" y="-0.0890" width="1.9587" height="0.1781" ry="0.0890" fill="currentColor"/>
</g>
<g transform="translate(3.7937, 25.5421)">
<rect x="45.8610" y="-0.0890" width="1.9587" height="0.1781" ry="0.0890" fill="currentColor"/>
</g>
<g transform="translate(3.7937, 24.5421)">
<rect x="40.6651" y="-0.0890" width="1.9587" height="0.1781" ry="0.0890" fill="currentColor"/>
</g>
<g transform="translate(3.7937, 25.5421)">
<rect x="40.6651" y="-0.0890" width="1.9587" height="0.1781" ry="0.0890" fill="currentColor"/>
</g>
<g transform="translate(3.7937, 26.5421)">
<rect x="40.6651" y="-0.0890" width="1.9587" height="0.1781" ry="0.0890" fill="currentColor"/>
</g>
<g transform="translate(3.7937, 24.5421)">
<rect x="28.9835" y="-0.0890" width="2.0580" height="0.1781" ry="0.0890" fill="currentColor"/>
</g>
<g transform="translate(3.7937, 25.5421)">
<rect x="28.9835" y="-0.0890" width="2.0580" height="0.1781" ry="0.0890" fill="currentColor"/>
</g>
<g transform="translate(3.7937, 26.5421)">
<rect x="28.9835" y="-0.0890" width="2.0580" height="0.1781" ry="0.0890" fill="currentColor"/>
</g>
<g transform="translate(3.7937, 24.5421)">
<rect x="24.9595" y="-0.0890" width="1.9587" height="0.1781" ry="0.0890" fill="currentColor"/>
</g>
<g transform="translate(3.7937, 25.5421)">
<rect x="24.9595" y="-0.0890" width="1.9587" height="0.1781" ry="0.0890" fill="currentColor"/>
</g>
<g transform="translate(3.7937, 24.5421)">
<rect x="20.9672" y="-0.0890" width="1.9587" height="0.1781" ry="0.0890" fill="currentColor"/>
</g>
<g transform="translate(3.7937, 25.5421)">
<rect x="20.9672" y="-0.0890" width="1.9587" height="0.1781" ry="0.0890" fill="currentColor"/>
</g>
<g transform="translate(3.7937, 26.5421)">
<rect x="20.9672" y="-0.0890" width="1.9587" height="0.1781" ry="0.0890" fill="currentColor"/>
</g>
<g transform="translate(3.7937, 24.5421)">
<rect x="17.6122" y="-0.0890" width="1.9587" height="0.1781" ry="0.0890" fill="currentColor"/>
</g>
<g transform="translate(3.7937, 25.5421)">
<rect x="17.6122" y="-0.0890" width="1.9587" height="0.1781" ry="0.0890" fill="currentColor"/>
</g>
<g transform="translate(3.7937, 26.5421)">
<rect x="17.6122" y="-0.0890" width="1.9587" height="0.1781" ry="0.0890" fill="currentColor"/>
</g>
<g transform="translate(3.7937, 24.5421)">
<rect x="14.7335" y="-0.0890" width="1.9587" height="0.1781" ry="0.0890" fill="currentColor"/>
</g>
<g transform="translate(3.7937, 25.5421)">
<rect x="14.7335" y="-0.0890" width="1.9587" height="0.1781" ry="0.0890" fill="currentColor"/>
</g>
<g transform="translate(3.7937, 26.5421)">
<rect x="14.7335" y="-0.0890" width="1.9587" height="0.1781" ry="0.0890" fill="currentColor"/>
</g>
<g transform="translate(3.7937, 24.5421)">
<rect x="5.4570" y="-0.0890" width="2.0580" height="0.1781" ry="0.0890" fill="currentColor"/>
</g>
<g transform="translate(3.7937, 25.5421)">
<rect x="5.4570" y="-0.0890" width="2.0580" height="0.1781" ry="0.0890" fill="currentColor"/>
</g>
<g transform="translate(3.7937, 26.5421)">
<rect x="5.4570" y="-0.0890" width="2.0580" height="0.1781" ry="0.0890" fill="currentColor"/>
</g>
<g transform="translate(3.7937, 23.5421)">
<line stroke-linejoin="round" stroke-linecap="round" stroke-width="0.0781" stroke="currentColor" x1="0.0390" y1="0" x2="72.0413" y2="0"/>
</g>
<g transform="translate(3.7937, 22.5421)">
<line stroke-linejoin="round" stroke-linecap="round" stroke-width="0.0781" stroke="currentColor" x1="0.0390" y1="0" x2="72.0413" y2="0"/>
</g>
<g transform="translate(3.7937, 21.5421)">
<line stroke-linejoin="round" stroke-linecap="round" stroke-width="0.0781" stroke="currentColor" x1="0.0390" y1="0" x2="72.0413" y2="0"/>
</g>
<g transform="translate(3.7937, 20.5421)">
<line stroke-linejoin="round" stroke-linecap="round" stroke-width="0.0781" stroke="currentColor" x1="0.0390" y1="0" x2="72.0413" y2="0"/>
</g>
<g transform="translate(3.7937, 19.5421)">
<line stroke-linejoin="round" stroke-linecap="round" stroke-width="0.0781" stroke="currentColor" x1="0.0390" y1="0" x2="72.0413" y2="0"/>
</g>
<g transform="translate(75.7256, 21.5421)">
<rect x="0.0000" y="-2.0000" width="0.1484" height="4.0000" ry="0.0000" fill="currentColor"/>
</g>
<g transform="translate(61.4484, 21.5421)">
<rect x="0.0000" y="-2.0000" width="0.1484" height="4.0000" ry="0.0000" fill="currentColor"/>
</g>
<g transform="translate(41.3612, 21.0421)">
<path transform="scale(0.0040, -0.0040)" d="M0 0c0 32 25 57 57 57s57 -25 57 -57s-25 -57 -57 -57s-57 25 -57 57z" fill="currentColor"/>
</g>
<g transform="translate(41.3612, 22.0421)">
<path transform="scale(0.0040, -0.0040)" d="M0 0c0 32 25 57 57 57s57 -25 57 -57s-25 -57 -57 -57s-57 25 -57 57z" fill="currentColor"/>
</g>
<g transform="translate(43.4580, 21.0421)">
<path transform="scale(0.0040, -0.0040)" d="M0 0c0 32 25 57 57 57s57 -25 57 -57s-25 -57 -57 -57s-57 25 -57 57z" fill="currentColor"/>
</g>
<g transform="translate(43.4580, 22.0421)">
<path transform="scale(0.0040, -0.0040)" d="M0 0c0 32 25 57 57 57s57 -25 57 -57s-25 -57 -57 -57s-57 25 -57 57z" fill="currentColor"/>
</g>
<g transform="translate(42.7551, 21.5421)">
<rect x="0.0000" y="-2.0000" width="0.4686" height="4.0000" ry="0.0000" fill="currentColor"/>
</g>
<g transform="translate(42.0522, 21.5421)">
<rect x="0.0000" y="-2.0000" width="0.4686" height="4.0000" ry="0.0000" fill="currentColor"/>
</g>
<g transform="translate(32.1013, 21.5421)">
<rect x="0.0000" y="-2.0000" width="0.1484" height="4.0000" ry="0.0000" fill="currentColor"/>
</g>
<g transform="translate(17.8347, 21.5421)">
<rect x="0.0000" y="-2.0000" width="0.1484" height="4.0000" ry="0.0000" fill="currentColor"/>
</g>
<g transform="translate(4.5937, 22.5421)">
<path transform="scale(0.0040, -0.0040)" d="M264 -594c47 0 165 26 165 246c0 32 -2 64 -5 96c-5 -1 -44 -8 -89 -8c-193 0 -333 178 -333 372c0 178 133 306 251 440c-27 93 -49 170 -49 345c0 116 55 226 150 295c5 4 11 4 16 0c67 -81 132 -246 132 -359c0 -144 -87 -256 -183 -365c20 -69 39 -138 55 -208
c2 0 7 1 15 1c154 0 254 -127 254 -259c0 -112 -73 -212 -180 -245c3 -36 5 -72 5 -108c0 -19 0 -37 -1 -56c-7 -120 -89 -226 -206 -226c-108 0 -195 87 -195 195c0 58 53 104 112 104c54 0 95 -48 95 -104c0 -52 -43 -95 -95 -95c-12 0 -24 4 -35 9c26 -41 70 -70 121 -70
zM459 -205c71 24 117 92 117 166c0 92 -69 184 -179 193c1 -5 45 -212 62 -359zM71 31c0 -146 142 -251 267 -251c1 0 46 0 82 6c-7 63 -28 201 -64 367c-79 -9 -125 -62 -125 -121c0 -44 26 -92 82 -124c4 -4 7 -9 7 -14c0 -11 -9 -21 -20 -21c-14 0 -125 62 -125 186
c0 88 57 173 158 196c-14 60 -30 119 -46 178c-108 -121 -216 -242 -216 -402zM411 1050c-99 -50 -161 -151 -161 -262c0 -59 11 -123 33 -200c82 97 149 198 149 325c0 35 0 69 -21 137z" fill="currentColor"/>
</g>
<g transform="translate(2.9287, 18.4826)">
<text font-family="serif" font-size="1.7462" text-anchor="start" fill="currentColor">
<tspan>6</tspan>
</text>
</g>
<g transform="translate(9.5937, 26.5421)">
<path transform="scale(0.0040, -0.0040)" d="M316 67c0 23 -18 42 -42 42c-40 0 -209 -113 -237 -147c-7 -8 -10 -19 -10 -29c0 -23 18 -42 42 -42c40 0 209 113 237 147c7 8 10 19 10 29zM265 135c38 0 78 -13 78 -68c0 -27 -19 -111 -76 -150c-19 -13 -85 -52 -189 -52c-38 0 -78 13 -78 68c0 27 19 111 76 150
c19 13 85 52 189 52z" fill="currentColor"/>
</g>
<g transform="translate(9.0506, 29.7958)">
<text font-family="serif" font-size="2.4697" text-anchor="start" fill="currentColor">
<tspan>lie</tspan>
</text>
</g>
<g transform="translate(10.9150, 21.5421)">
<rect x="-0.0508" y="-0.0000" width="0.1015" height="4.7316" ry="0.0267" fill="currentColor"/>
</g>
<g transform="translate(13.6502, 21.5421)">
<path transform="scale(0.0040, -0.0040)" d="M367 0h-359c-4 0 -8 4 -8 8v140c0 4 4 8 8 8h359c4 0 8 -4 8 -8v-140c0 -4 -4 -8 -8 -8z" fill="currentColor"/>
</g>
<g transform="translate(18.8536, 26.5421)">
<path transform="scale(0.0040, -0.0040)" d="M222 135c64 0 104 -35 104 -86c0 -89 -114 -184 -221 -184c-64 0 -105 35 -105 86c0 89 115 184 222 184z" fill="currentColor"/>
</g>
<g transform="translate(18.5847, 29.7958)">
<text font-family="serif" font-size="2.4697" text-anchor="start" fill="currentColor">
<tspan>o.</tspan>
</text>
</g>
<g transform="translate(20.1087, 21.5421)">
<rect x="-0.0508" y="-0.0000" width="0.1015" height="4.8033" ry="0.0267" fill="currentColor"/>
</g>
<g transform="translate(21.7323, 26.5421)">
<path transform="scale(0.0040, -0.0040)" d="M222 135c64 0 104 -35 104 -86c0 -89 -114 -184 -221 -184c-64 0 -105 35 -105 86c0 89 115 184 222 184z" fill="currentColor"/>
</g>
<g transform="translate(21.1106, 29.7958)">
<text font-family="serif" font-size="2.4697" text-anchor="start" fill="currentColor">
<tspan>To</tspan>
</text>
</g>
<g transform="translate(22.9874, 21.5421)">
<rect x="-0.0508" y="-0.0000" width="0.1015" height="4.8033" ry="0.0267" fill="currentColor"/>
</g>
<g transform="translate(25.0873, 26.5421)">
<path transform="scale(0.0040, -0.0040)" d="M222 135c64 0 104 -35 104 -86c0 -89 -114 -184 -221 -184c-64 0 -105 35 -105 86c0 89 115 184 222 184z" fill="currentColor"/>
</g>
<g transform="translate(23.7599, 29.7958)">
<text font-family="serif" font-size="2.4697" text-anchor="start" fill="currentColor">
<tspan>mor</tspan>
</text>
</g>
<g transform="translate(26.3424, 21.5421)">
<rect x="-0.0508" y="-0.0000" width="0.1015" height="4.8033" ry="0.0267" fill="currentColor"/>
</g>
<g transform="translate(29.0797, 26.0421)">
<path transform="scale(0.0040, -0.0040)" d="M222 135c64 0 104 -35 104 -86c0 -89 -114 -184 -221 -184c-64 0 -105 35 -105 86c0 89 115 184 222 184z" fill="currentColor"/>
</g>
<g transform="translate(27.8206, 29.7958)">
<text font-family="serif" font-size="2.4697" text-anchor="start" fill="currentColor">
<tspan>row</tspan>
</text>
</g>
<g transform="translate(30.3347, 21.5421)">
<rect x="-0.0508" y="-0.0000" width="0.1015" height="4.3033" ry="0.0267" fill="currentColor"/>
</g>
<g transform="translate(33.1202, 27.0421)">
<path transform="scale(0.0040, -0.0040)" d="M316 67c0 23 -18 42 -42 42c-40 0 -209 -113 -237 -147c-7 -8 -10 -19 -10 -29c0 -23 18 -42 42 -42c40 0 209 113 237 147c7 8 10 19 10 29zM265 135c38 0 78 -13 78 -68c0 -27 -19 -111 -76 -150c-19 -13 -85 -52 -189 -52c-38 0 -78 13 -78 68c0 27 19 111 76 150
c19 13 85 52 189 52z" fill="currentColor"/>
</g>
<g transform="translate(32.3722, 29.7958)">
<text font-family="serif" font-size="2.4697" text-anchor="start" fill="currentColor">
<tspan>we</tspan>
</text>
</g>
<g transform="translate(34.4414, 21.5421)">
<rect x="-0.0508" y="-0.0000" width="0.1015" height="5.2316" ry="0.0267" fill="currentColor"/>
</g>
<g transform="translate(37.1767, 21.5421)">
<path transform="scale(0.0040, -0.0040)" d="M367 0h-359c-4 0 -8 4 -8 8v140c0 4 4 8 8 8h359c4 0 8 -4 8 -8v-140c0 -4 -4 -8 -8 -8z" fill="currentColor"/>
</g>
<g transform="translate(14.7168, 29.7958)">
<rect x="0.0000" y="-0.5215" width="0.6600" height="0.1015" ry="0.0312" fill="currentColor"/>
</g>
<g transform="translate(44.7852, 27.0421)">
<path transform="scale(0.0040, -0.0040)" d="M222 135c64 0 104 -35 104 -86c0 -89 -114 -184 -221 -184c-64 0 -105 35 -105 86c0 89 115 184 222 184z" fill="currentColor"/>
</g>
<g transform="translate(43.5261, 29.7958)">
<text font-family="serif" font-size="2.4697" text-anchor="start" fill="currentColor">
<tspan>will</tspan>
</text>
</g>
<g transform="translate(46.0403, 21.5421)">
<rect x="-0.0508" y="-0.0000" width="0.1015" height="5.3033" ry="0.0267" fill="currentColor"/>
</g>
<g transform="translate(49.9812, 26.0421)">
<path transform="scale(0.0040, -0.0040)" d="M222 135c64 0 104 -35 104 -86c0 -89 -114 -184 -221 -184c-64 0 -105 35 -105 86c0 89 115 184 222 184z" fill="currentColor"/>
</g>
<g transform="translate(47.8002, 29.7958)">
<text font-family="serif" font-size="2.4697" text-anchor="start" fill="currentColor">
<tspan>work,</tspan>
</text>
</g>
<g transform="translate(51.2362, 21.5421)">
<rect x="-0.0508" y="-0.0000" width="0.1015" height="4.3033" ry="0.0267" fill="currentColor"/>
</g>
<g transform="translate(54.8357, 25.5421)">
<path transform="scale(0.0040, -0.0040)" d="M222 135c64 0 104 -35 104 -86c0 -89 -114 -184 -221 -184c-64 0 -105 35 -105 86c0 89 115 184 222 184z" fill="currentColor"/>
</g>
<g transform="translate(53.9180, 29.7958)">
<text font-family="serif" font-size="2.4697" text-anchor="start" fill="currentColor">
<tspan>but</tspan>
</text>
</g>
<g transform="translate(56.0907, 21.5421)">
<rect x="-0.0508" y="-0.0000" width="0.1015" height="3.8033" ry="0.0267" fill="currentColor"/>
</g>
<g transform="translate(58.4268, 26.0421)">
<path transform="scale(0.0040, -0.0040)" d="M222 135c64 0 104 -35 104 -86c0 -89 -114 -184 -221 -184c-64 0 -105 35 -105 86c0 89 115 184 222 184z" fill="currentColor"/>
</g>
<g transform="translate(57.5091, 29.7958)">
<text font-family="serif" font-size="2.4697" text-anchor="start" fill="currentColor">
<tspan>not</tspan>
</text>
</g>
<g transform="translate(59.6819, 21.5421)">
<rect x="-0.0508" y="-0.0000" width="0.1015" height="4.3033" ry="0.0267" fill="currentColor"/>
</g>
<g transform="translate(62.4673, 26.5421)">
<path transform="scale(0.0040, -0.0040)" d="M222 135c64 0 104 -35 104 -86c0 -89 -114 -184 -221 -184c-64 0 -105 35 -105 86c0 89 115 184 222 184z" fill="currentColor"/>
</g>
<g transform="translate(62.1642, 29.7958)">
<text font-family="serif" font-size="2.4697" text-anchor="start" fill="currentColor">
<tspan>to</tspan>
</text>
</g>
<g transform="translate(63.7224, 21.5421)">
<rect x="-0.0508" y="-0.0000" width="0.1015" height="4.8033" ry="0.0267" fill="currentColor"/>
</g>
<g transform="translate(65.5378, 26.0421)">
<path transform="scale(0.0040, -0.0040)" d="M222 135c64 0 104 -35 104 -86c0 -89 -114 -184 -221 -184c-64 0 -105 35 -105 86c0 89 115 184 222 184z" fill="currentColor"/>
</g>
<g transform="translate(64.1762, 29.7958)">
<text font-family="serif" font-size="2.4697" text-anchor="start" fill="currentColor">
<tspan>day,</tspan>
</text>
</g>
<g transform="translate(66.7928, 21.5421)">
<rect x="-0.0508" y="-0.0000" width="0.1015" height="4.3033" ry="0.0267" fill="currentColor"/>
</g>
<g transform="translate(70.3240, 27.0421)">
<path transform="scale(0.0040, -0.0040)" d="M222 135c64 0 104 -35 104 -86c0 -89 -114 -184 -221 -184c-64 0 -105 35 -105 86c0 89 115 184 222 184z" fill="currentColor"/>
</g>
<g transform="translate(68.6552, 29.7958)">
<text font-family="serif" font-size="2.4697" text-anchor="start" fill="currentColor">
<tspan>John</tspan>
</text>
</g>
<g transform="translate(71.5790, 21.5421)">
<rect x="-0.0508" y="-0.0000" width="0.1015" height="5.3033" ry="0.0267" fill="currentColor"/>
</g>
<g transform="translate(73.2027, 21.5421)">
<path transform="scale(0.0040, -0.0040)" d="M-4 79c0 59 125 82 125 181c0 24 -8 47 -24 67l-39 46c-2 3 -3 6 -3 9c0 7 7 14 14 14c3 0 7 -1 10 -5l152 -182c7 -8 10 -17 10 -25c0 -59 -125 -82 -125 -181c0 -24 8 -47 24 -67l87 -104c2 -3 3 -5 3 -8c0 -7 -7 -14 -14 -14c-6 0 -48 48 -112 48
c-14 0 -52 -1 -52 -70c0 -35 11 -75 28 -96c6 -7 -4 -16 -10 -9c-46 55 -93 150 -93 204c0 12 0 40 36 40c34 0 85 -15 130 -37l-137 164c-7 8 -10 17 -10 25z" fill="currentColor"/>
</g>
<g transform="translate(3.7937, 36.5421)">
<rect x="68.4134" y="-0.0890" width="1.9587" height="0.1781" ry="0.0890" fill="currentColor"/>
</g>
<g transform="translate(3.7937, 37.5421)">
<rect x="68.4134" y="-0.0890" width="1.9587" height="0.1781" ry="0.0890" fill="currentColor"/>
</g>
<g transform="translate(3.7937, 36.5421)">
<rect x="64.7197" y="-0.0890" width="1.9587" height="0.1781" ry="0.0890" fill="currentColor"/>
</g>
<g transform="translate(3.7937, 37.5421)">
<rect x="64.7197" y="-0.0890" width="1.9587" height="0.1781" ry="0.0890" fill="currentColor"/>
</g>
<g transform="translate(3.7937, 36.5421)">
<rect x="61.6705" y="-0.0890" width="1.9587" height="0.1781" ry="0.0890" fill="currentColor"/>
</g>
<g transform="translate(3.7937, 37.5421)">
<rect x="61.6705" y="-0.0890" width="1.9587" height="0.1781" ry="0.0890" fill="currentColor"/>
</g>
<g transform="translate(3.7937, 36.5421)">
<rect x="58.6212" y="-0.0890" width="1.9587" height="0.1781" ry="0.0890" fill="currentColor"/>
</g>
<g transform="translate(3.7937, 37.5421)">
<rect x="58.6212" y="-0.0890" width="1.9587" height="0.1781" ry="0.0890" fill="currentColor"/>
</g>
<g transform="translate(3.7937, 36.5421)">
<rect x="48.7211" y="-0.0890" width="2.0580" height="0.1781" ry="0.0890" fill="currentColor"/>
</g>
<g transform="translate(3.7937, 37.5421)">
<rect x="48.7211" y="-0.0890" width="2.0580" height="0.1781" ry="0.0890" fill="currentColor"/>
</g>
<g transform="translate(3.7937, 36.5421)">
<rect x="44.4851" y="-0.0890" width="1.9587" height="0.1781" ry="0.0890" fill="currentColor"/>
</g>
<g transform="translate(3.7937, 37.5421)">
<rect x="44.4851" y="-0.0890" width="1.9587" height="0.1781" ry="0.0890" fill="currentColor"/>
</g>
<g transform="translate(3.7937, 36.5421)">
<rect x="41.4358" y="-0.0890" width="1.9587" height="0.1781" ry="0.0890" fill="currentColor"/>
</g>
<g transform="translate(3.7937, 37.5421)">
<rect x="41.4358" y="-0.0890" width="1.9587" height="0.1781" ry="0.0890" fill="currentColor"/>
</g>
<g transform="translate(3.7937, 36.5421)">
<rect x="38.3865" y="-0.0890" width="1.9587" height="0.1781" ry="0.0890" fill="currentColor"/>
</g>
<g transform="translate(3.7937, 37.5421)">
<rect x="38.3865" y="-0.0890" width="1.9587" height="0.1781" ry="0.0890" fill="currentColor"/>
</g>
<g transform="translate(3.7937, 36.5421)">
<rect x="34.1808" y="-0.0890" width="1.9587" height="0.1781" ry="0.0890" fill="currentColor"/>
</g>
<g transform="translate(3.7937, 37.5421)">
<rect x="34.1808" y="-0.0890" width="1.9587" height="0.1781" ry="0.0890" fill="currentColor"/>
</g>
<g transform="translate(3.7937, 36.5421)">
<rect x="24.9725" y="-0.0890" width="1.9587" height="0.1781" ry="0.0890" fill="currentColor"/>
</g>
<g transform="translate(3.7937, 37.5421)">
<rect x="24.9725" y="-0.0890" width="1.9587" height="0.1781" ry="0.0890" fill="currentColor"/>
</g>
<g transform="translate(3.7937, 38.5421)">
<rect x="24.9725" y="-0.0890" width="1.9587" height="0.1781" ry="0.0890" fill="currentColor"/>
</g>
<g transform="translate(3.7937, 36.5421)">
<rect x="22.1732" y="-0.0890" width="1.9587" height="0.1781" ry="0.0890" fill="currentColor"/>
</g>
<g transform="translate(3.7937, 37.5421)">
<rect x="22.1732" y="-0.0890" width="1.9587" height="0.1781" ry="0.0890" fill="currentColor"/>
</g>
<g transform="translate(3.7937, 36.5421)">
<rect x="19.1239" y="-0.0890" width="1.9587" height="0.1781" ry="0.0890" fill="currentColor"/>
</g>
<g transform="translate(3.7937, 37.5421)">
<rect x="19.1239" y="-0.0890" width="1.9587" height="0.1781" ry="0.0890" fill="currentColor"/>
</g>
<g transform="translate(3.7937, 38.5421)">
<rect x="19.1239" y="-0.0890" width="1.9587" height="0.1781" ry="0.0890" fill="currentColor"/>
</g>
<g transform="translate(3.7937, 36.5421)">
<rect x="14.8714" y="-0.0890" width="1.9587" height="0.1781" ry="0.0890" fill="currentColor"/>
</g>
<g transform="translate(3.7937, 37.5421)">
<rect x="14.8714" y="-0.0890" width="1.9587" height="0.1781" ry="0.0890" fill="currentColor"/>
</g>
<g transform="translate(3.7937, 36.5421)">
<rect x="11.8221" y="-0.0890" width="1.9587" height="0.1781" ry="0.0890" fill="currentColor"/>
</g>
<g transform="translate(3.7937, 37.5421)">
<rect x="11.8221" y="-0.0890" width="1.9587" height="0.1781" ry="0.0890" fill="currentColor"/>
</g>
<g transform="translate(3.7937, 36.5421)">
<rect x="8.7728" y="-0.0890" width="1.9587" height="0.1781" ry="0.0890" fill="currentColor"/>
</g>
<g transform="translate(3.7937, 37.5421)">
<rect x="8.7728" y="-0.0890" width="1.9587" height="0.1781" ry="0.0890" fill="currentColor"/>
</g>
<g transform="translate(3.7937, 36.5421)">
<rect x="5.4735" y="-0.0890" width="1.9587" height="0.1781" ry="0.0890" fill="currentColor"/>
</g>
<g transform="translate(3.7937, 37.5421)">
<rect x="5.4735" y="-0.0890" width="1.9587" height="0.1781" ry="0.0890" fill="currentColor"/>
</g>
<g transform="translate(3.7937, 38.5421)">
<rect x="5.4735" y="-0.0890" width="1.9587" height="0.1781" ry="0.0890" fill="currentColor"/>
</g>
<g transform="translate(3.7937, 35.5421)">
<line stroke-linejoin="round" stroke-linecap="round" stroke-width="0.0781" stroke="currentColor" x1="0.0390" y1="0" x2="72.0413" y2="0"/>
</g>
<g transform="translate(3.7937, 34.5421)">
<line stroke-linejoin="round" stroke-linecap="round" stroke-width="0.0781" stroke="currentColor" x1="0.0390" y1="0" x2="72.0413" y2="0"/>
</g>
<g transform="translate(3.7937, 33.5421)">
<line stroke-linejoin="round" stroke-linecap="round" stroke-width="0.0781" stroke="currentColor" x1="0.0390" y1="0" x2="72.0413" y2="0"/>
</g>
<g transform="translate(3.7937, 32.5421)">
<line stroke-linejoin="round" stroke-linecap="round" stroke-width="0.0781" stroke="currentColor" x1="0.0390" y1="0" x2="72.0413" y2="0"/>
</g>
<g transform="translate(3.7937, 31.5421)">
<line stroke-linejoin="round" stroke-linecap="round" stroke-width="0.0781" stroke="currentColor" x1="0.0390" y1="0" x2="72.0413" y2="0"/>
</g>
<g transform="translate(75.7256, 33.5421)">
<rect x="0.0000" y="-2.0000" width="0.1484" height="4.0000" ry="0.0000" fill="currentColor"/>
</g>
<g transform="translate(61.6809, 33.5421)">
<rect x="0.0000" y="-2.0000" width="0.1484" height="4.0000" ry="0.0000" fill="currentColor"/>
</g>
<g transform="translate(51.7974, 33.5421)">
<rect x="0.0000" y="-2.0000" width="0.1484" height="4.0000" ry="0.0000" fill="currentColor"/>
</g>
<g transform="translate(34.8353, 33.0421)">
<path transform="scale(0.0040, -0.0040)" d="M0 0c0 32 25 57 57 57s57 -25 57 -57s-25 -57 -57 -57s-57 25 -57 57z" fill="currentColor"/>
</g>
<g transform="translate(34.8353, 34.0421)">
<path transform="scale(0.0040, -0.0040)" d="M0 0c0 32 25 57 57 57s57 -25 57 -57s-25 -57 -57 -57s-57 25 -57 57z" fill="currentColor"/>
</g>
<g transform="translate(36.9321, 33.0421)">
<path transform="scale(0.0040, -0.0040)" d="M0 0c0 32 25 57 57 57s57 -25 57 -57s-25 -57 -57 -57s-57 25 -57 57z" fill="currentColor"/>
</g>
<g transform="translate(36.9321, 34.0421)">
<path transform="scale(0.0040, -0.0040)" d="M0 0c0 32 25 57 57 57s57 -25 57 -57s-25 -57 -57 -57s-57 25 -57 57z" fill="currentColor"/>
</g>
<g transform="translate(36.2293, 33.5421)">
<rect x="0.0000" y="-2.0000" width="0.4686" height="4.0000" ry="0.0000" fill="currentColor"/>
</g>
<g transform="translate(35.5264, 33.5421)">
<rect x="0.0000" y="-2.0000" width="0.4686" height="4.0000" ry="0.0000" fill="currentColor"/>
</g>
<g transform="translate(22.1836, 33.5421)">
<rect x="0.0000" y="-2.0000" width="0.1484" height="4.0000" ry="0.0000" fill="currentColor"/>
</g>
<g transform="translate(67.7918, 41.7162)">
<rect x="0.0000" y="-0.5215" width="0.6600" height="0.1015" ry="0.0312" fill="currentColor"/>
</g>
<g transform="translate(4.5937, 34.5421)">
<path transform="scale(0.0040, -0.0040)" d="M264 -594c47 0 165 26 165 246c0 32 -2 64 -5 96c-5 -1 -44 -8 -89 -8c-193 0 -333 178 -333 372c0 178 133 306 251 440c-27 93 -49 170 -49 345c0 116 55 226 150 295c5 4 11 4 16 0c67 -81 132 -246 132 -359c0 -144 -87 -256 -183 -365c20 -69 39 -138 55 -208
c2 0 7 1 15 1c154 0 254 -127 254 -259c0 -112 -73 -212 -180 -245c3 -36 5 -72 5 -108c0 -19 0 -37 -1 -56c-7 -120 -89 -226 -206 -226c-108 0 -195 87 -195 195c0 58 53 104 112 104c54 0 95 -48 95 -104c0 -52 -43 -95 -95 -95c-12 0 -24 4 -35 9c26 -41 70 -70 121 -70
zM459 -205c71 24 117 92 117 166c0 92 -69 184 -179 193c1 -5 45 -212 62 -359zM71 31c0 -146 142 -251 267 -251c1 0 46 0 82 6c-7 63 -28 201 -64 367c-79 -9 -125 -62 -125 -121c0 -44 26 -92 82 -124c4 -4 7 -9 7 -14c0 -11 -9 -21 -20 -21c-14 0 -125 62 -125 186
c0 88 57 173 158 196c-14 60 -30 119 -46 178c-108 -121 -216 -242 -216 -402zM411 1050c-99 -50 -161 -151 -161 -262c0 -59 11 -123 33 -200c82 97 149 198 149 325c0 35 0 69 -21 137z" fill="currentColor"/>
</g>
<g transform="translate(2.1093, 30.5031)">
<text font-family="serif" font-size="1.7462" text-anchor="start" fill="currentColor">
<tspan>11</tspan>
</text>
</g>
<g transform="translate(64.4523, 41.7162)">
<rect x="0.0000" y="-0.5215" width="0.6600" height="0.1015" ry="0.0312" fill="currentColor"/>
</g>
<g transform="translate(9.5937, 39.0421)">
<path transform="scale(0.0040, -0.0040)" d="M222 135c64 0 104 -35 104 -86c0 -89 -114 -184 -221 -184c-64 0 -105 35 -105 86c0 89 115 184 222 184z" fill="currentColor"/>
</g>
<g transform="translate(8.8126, 41.7162)">
<text font-family="serif" font-size="2.4697" text-anchor="start" fill="currentColor">
<tspan>Ka</tspan>
</text>
</g>
<g transform="translate(10.8487, 33.5421)">
<rect x="-0.0508" y="-0.0000" width="0.1015" height="5.3033" ry="0.0267" fill="currentColor"/>
</g>
<g transform="translate(12.8930, 38.0421)">
<path transform="scale(0.0040, -0.0040)" d="M222 135c64 0 104 -35 104 -86c0 -89 -114 -184 -221 -184c-64 0 -105 35 -105 86c0 89 115 184 222 184z" fill="currentColor"/>
</g>
<g transform="translate(12.3850, 41.7162)">
<text font-family="serif" font-size="2.4697" text-anchor="start" fill="currentColor">
<tspan>na</tspan>
</text>
</g>
<g transform="translate(14.1480, 33.5421)">
<rect x="-0.0508" y="-0.0000" width="0.1015" height="4.3033" ry="0.0267" fill="currentColor"/>
</g>
<g transform="translate(50.9173, 41.7162)">
<rect x="0.0000" y="-0.5215" width="0.6600" height="0.1015" ry="0.0312" fill="currentColor"/>
</g>
<g transform="translate(15.9422, 37.5421)">
<path transform="scale(0.0040, -0.0040)" d="M222 135c64 0 104 -35 104 -86c0 -89 -114 -184 -221 -184c-64 0 -105 35 -105 86c0 89 115 184 222 184z" fill="currentColor"/>
</g>
<g transform="translate(15.4343, 41.7162)">
<text font-family="serif" font-size="2.4697" text-anchor="start" fill="currentColor">
<tspan>ka</tspan>
</text>
</g>
<g transform="translate(17.1973, 33.5421)">
<rect x="-0.0508" y="-0.0000" width="0.1015" height="3.8033" ry="0.0267" fill="currentColor"/>
</g>
<g transform="translate(47.4397, 41.7162)">
<rect x="0.0000" y="-0.5215" width="0.5875" height="0.1015" ry="0.0312" fill="currentColor"/>
</g>
<g transform="translate(18.9915, 38.0421)">
<path transform="scale(0.0040, -0.0040)" d="M222 135c64 0 104 -35 104 -86c0 -89 -114 -184 -221 -184c-64 0 -105 35 -105 86c0 89 115 184 222 184z" fill="currentColor"/>
</g>
<g transform="translate(18.1763, 41.7162)">
<text font-family="serif" font-size="2.4697" text-anchor="start" fill="currentColor">
<tspan>na,</tspan>
</text>
</g>
<g transform="translate(20.2466, 33.5421)">
<rect x="-0.0508" y="-0.0000" width="0.1015" height="4.3033" ry="0.0267" fill="currentColor"/>
</g>
<g transform="translate(44.6636, 41.7162)">
<rect x="0.0000" y="-0.5215" width="0.3144" height="0.1015" ry="0.0312" fill="currentColor"/>
</g>
<g transform="translate(23.2441, 38.5421)">
<path transform="scale(0.0040, -0.0040)" d="M222 135c64 0 104 -35 104 -86c0 -89 -114 -184 -221 -184c-64 0 -105 35 -105 86c0 89 115 184 222 184z" fill="currentColor"/>
</g>
<g transform="translate(22.9410, 41.7162)">
<text font-family="serif" font-size="2.4697" text-anchor="start" fill="currentColor">
<tspan>tu</tspan>
</text>
</g>
<g transform="translate(24.4991, 33.5421)">
<rect x="-0.0508" y="-0.0000" width="0.1015" height="4.8033" ry="0.0267" fill="currentColor"/>
</g>
<g transform="translate(26.2933, 38.0421)">
<path transform="scale(0.0040, -0.0040)" d="M222 135c64 0 104 -35 104 -86c0 -89 -114 -184 -221 -184c-64 0 -105 35 -105 86c0 89 115 184 222 184z" fill="currentColor"/>
</g>
<g transform="translate(25.7171, 41.7162)">
<text font-family="serif" font-size="2.4697" text-anchor="start" fill="currentColor">
<tspan>lie</tspan>
</text>
</g>
<g transform="translate(27.5484, 33.5421)">
<rect x="-0.0508" y="-0.0000" width="0.1015" height="4.3033" ry="0.0267" fill="currentColor"/>
</g>
<g transform="translate(28.2454, 41.7162)">
<rect x="0.0000" y="-0.5215" width="0.5082" height="0.1015" ry="0.0312" fill="currentColor"/>
</g>
<g transform="translate(29.0926, 39.0421)">
<path transform="scale(0.0040, -0.0040)" d="M222 135c64 0 104 -35 104 -86c0 -89 -114 -184 -221 -184c-64 0 -105 35 -105 86c0 89 115 184 222 184z" fill="currentColor"/>
</g>
<g transform="translate(28.8236, 41.7162)">
<text font-family="serif" font-size="2.4697" text-anchor="start" fill="currentColor">
<tspan>o.</tspan>
</text>
</g>
<g transform="translate(30.3476, 33.5421)">
<rect x="-0.0508" y="-0.0000" width="0.1015" height="5.3033" ry="0.0267" fill="currentColor"/>
</g>
<g transform="translate(24.9550, 41.7162)">
<rect x="0.0000" y="-0.5215" width="0.6600" height="0.1015" ry="0.0312" fill="currentColor"/>
</g>
<g transform="translate(32.1419, 33.5421)">
<path transform="scale(0.0040, -0.0040)" d="M-4 79c0 59 125 82 125 181c0 24 -8 47 -24 67l-39 46c-2 3 -3 6 -3 9c0 7 7 14 14 14c3 0 7 -1 10 -5l152 -182c7 -8 10 -17 10 -25c0 -59 -125 -82 -125 -181c0 -24 8 -47 24 -67l87 -104c2 -3 3 -5 3 -8c0 -7 -7 -14 -14 -14c-6 0 -48 48 -112 48
c-14 0 -52 -1 -52 -70c0 -35 11 -75 28 -96c6 -7 -4 -16 -10 -9c-46 55 -93 150 -93 204c0 12 0 40 36 40c34 0 85 -15 130 -37l-137 164c-7 8 -10 17 -10 25z" fill="currentColor"/>
</g>
<g transform="translate(17.8161, 41.7162)">
<rect x="0.0000" y="-0.5215" width="0.3000" height="0.1015" ry="0.0312" fill="currentColor"/>
</g>
<g transform="translate(38.3009, 38.0421)">
<path transform="scale(0.0040, -0.0040)" d="M222 135c64 0 104 -35 104 -86c0 -89 -114 -184 -221 -184c-64 0 -105 35 -105 86c0 89 115 184 222 184z" fill="currentColor"/>
</g>
<g transform="translate(36.6321, 41.7162)">
<text font-family="serif" font-size="2.4697" text-anchor="start" fill="currentColor">
<tspan>John</tspan>
</text>
</g>
<g transform="translate(39.5560, 33.5421)">
<rect x="-0.0508" y="-0.0000" width="0.1015" height="4.3033" ry="0.0267" fill="currentColor"/>
</g>
<g transform="translate(14.7767, 41.7162)">
<rect x="0.0000" y="-0.5215" width="0.5875" height="0.1015" ry="0.0312" fill="currentColor"/>
</g>
<g transform="translate(42.5067, 38.0421)">
<path transform="scale(0.0040, -0.0040)" d="M222 135c64 0 104 -35 104 -86c0 -89 -114 -184 -221 -184c-64 0 -105 35 -105 86c0 89 115 184 222 184z" fill="currentColor"/>
</g>
<g transform="translate(41.7256, 41.7162)">
<text font-family="serif" font-size="2.4697" text-anchor="start" fill="currentColor">
<tspan>Ka</tspan>
</text>
</g>
<g transform="translate(43.7617, 33.5421)">
<rect x="-0.0508" y="-0.0000" width="0.1015" height="4.3033" ry="0.0267" fill="currentColor"/>
</g>
<g transform="translate(45.5560, 38.0421)">
<path transform="scale(0.0040, -0.0040)" d="M222 135c64 0 104 -35 104 -86c0 -89 -114 -184 -221 -184c-64 0 -105 35 -105 86c0 89 115 184 222 184z" fill="currentColor"/>
</g>
<g transform="translate(45.0480, 41.7162)">
<text font-family="serif" font-size="2.4697" text-anchor="start" fill="currentColor">
<tspan>na</tspan>
</text>
</g>
<g transform="translate(46.8110, 33.5421)">
<rect x="-0.0508" y="-0.0000" width="0.1015" height="4.3033" ry="0.0267" fill="currentColor"/>
</g>
<g transform="translate(11.7506, 41.7162)">
<rect x="0.0000" y="-0.5215" width="0.5644" height="0.1015" ry="0.0312" fill="currentColor"/>
</g>
<g transform="translate(48.6052, 37.5421)">
<path transform="scale(0.0040, -0.0040)" d="M222 135c64 0 104 -35 104 -86c0 -89 -114 -184 -221 -184c-64 0 -105 35 -105 86c0 89 115 184 222 184z" fill="currentColor"/>
</g>
<g transform="translate(48.0973, 41.7162)">
<text font-family="serif" font-size="2.4697" text-anchor="start" fill="currentColor">
<tspan>ka</tspan>
</text>
</g>
<g transform="translate(49.8603, 33.5421)">
<rect x="-0.0508" y="-0.0000" width="0.1015" height="3.8033" ry="0.0267" fill="currentColor"/>
</g>
<g transform="translate(52.8578, 38.0421)">
<path transform="scale(0.0040, -0.0040)" d="M316 67c0 23 -18 42 -42 42c-40 0 -209 -113 -237 -147c-7 -8 -10 -19 -10 -29c0 -23 18 -42 42 -42c40 0 209 113 237 147c7 8 10 19 10 29zM265 135c38 0 78 -13 78 -68c0 -27 -19 -111 -76 -150c-19 -13 -85 -52 -189 -52c-38 0 -78 13 -78 68c0 27 19 111 76 150
c19 13 85 52 189 52z" fill="currentColor"/>
</g>
<g transform="translate(52.0756, 41.7162)">
<text font-family="serif" font-size="2.4697" text-anchor="start" fill="currentColor">
<tspan>na,</tspan>
</text>
</g>
<g transform="translate(54.1790, 33.5421)">
<rect x="-0.0508" y="-0.0000" width="0.1015" height="4.2316" ry="0.0267" fill="currentColor"/>
</g>
<g transform="translate(57.2054, 33.5421)">
<path transform="scale(0.0040, -0.0040)" d="M367 0h-359c-4 0 -8 4 -8 8v140c0 4 4 8 8 8h359c4 0 8 -4 8 -8v-140c0 -4 -4 -8 -8 -8z" fill="currentColor"/>
</g>
<g transform="translate(62.7413, 38.0421)">
<path transform="scale(0.0040, -0.0040)" d="M222 135c64 0 104 -35 104 -86c0 -89 -114 -184 -221 -184c-64 0 -105 35 -105 86c0 89 115 184 222 184z" fill="currentColor"/>
</g>
<g transform="translate(62.4382, 41.7162)">
<text font-family="serif" font-size="2.4697" text-anchor="start" fill="currentColor">
<tspan>tu</tspan>
</text>
</g>
<g transform="translate(63.9964, 33.5421)">
<rect x="-0.0508" y="-0.0000" width="0.1015" height="4.3033" ry="0.0267" fill="currentColor"/>
</g>
<g transform="translate(65.7906, 38.0421)">
<path transform="scale(0.0040, -0.0040)" d="M222 135c64 0 104 -35 104 -86c0 -89 -114 -184 -221 -184c-64 0 -105 35 -105 86c0 89 115 184 222 184z" fill="currentColor"/>
</g>
<g transform="translate(65.2144, 41.7162)">
<text font-family="serif" font-size="2.4697" text-anchor="start" fill="currentColor">
<tspan>lie</tspan>
</text>
</g>
<g transform="translate(67.0457, 33.5421)">
<rect x="-0.0508" y="-0.0000" width="0.1015" height="4.3033" ry="0.0267" fill="currentColor"/>
</g>
<g transform="translate(68.8399, 38.0421)">
<path transform="scale(0.0040, -0.0040)" d="M222 135c64 0 104 -35 104 -86c0 -89 -114 -184 -221 -184c-64 0 -105 35 -105 86c0 89 115 184 222 184z" fill="currentColor"/>
</g>
<g transform="translate(68.5709, 41.7162)">
<text font-family="serif" font-size="2.4697" text-anchor="start" fill="currentColor">
<tspan>o,</tspan>
</text>
</g>
<g transform="translate(70.0949, 33.5421)">
<rect x="-0.0508" y="-0.0000" width="0.1015" height="4.3033" ry="0.0267" fill="currentColor"/>
</g>
<g transform="translate(72.5335, 37.5421)">
<path transform="scale(0.0040, -0.0040)" d="M222 135c64 0 104 -35 104 -86c0 -89 -114 -184 -221 -184c-64 0 -105 35 -105 86c0 89 115 184 222 184z" fill="currentColor"/>
</g>
<g transform="translate(70.8647, 41.7162)">
<text font-family="serif" font-size="2.4697" text-anchor="start" fill="currentColor">
<tspan>John</tspan>
</text>
</g>
<g transform="translate(73.7886, 33.5421)">
<rect x="-0.0508" y="-0.0000" width="0.1015" height="3.8033" ry="0.0267" fill="currentColor"/>
</g>
<g transform="translate(3.7937, 48.5421)">
<rect x="59.8043" y="-0.0890" width="2.0580" height="0.1781" ry="0.0890" fill="currentColor"/>
</g>
<g transform="translate(3.7937, 49.5421)">
<rect x="59.8043" y="-0.0890" width="2.0580" height="0.1781" ry="0.0890" fill="currentColor"/>
</g>
<g transform="translate(3.7937, 50.5421)">
<rect x="59.8043" y="-0.0890" width="2.0580" height="0.1781" ry="0.0890" fill="currentColor"/>
</g>
<g transform="translate(3.7937, 48.5421)">
<rect x="54.9874" y="-0.0890" width="1.9587" height="0.1781" ry="0.0890" fill="currentColor"/>
</g>
<g transform="translate(3.7937, 49.5421)">
<rect x="54.9874" y="-0.0890" width="1.9587" height="0.1781" ry="0.0890" fill="currentColor"/>
</g>
<g transform="translate(3.7937, 48.5421)">
<rect x="50.9951" y="-0.0890" width="1.9587" height="0.1781" ry="0.0890" fill="currentColor"/>
</g>
<g transform="translate(3.7937, 49.5421)">
<rect x="50.9951" y="-0.0890" width="1.9587" height="0.1781" ry="0.0890" fill="currentColor"/>
</g>
<g transform="translate(3.7937, 50.5421)">
<rect x="50.9951" y="-0.0890" width="1.9587" height="0.1781" ry="0.0890" fill="currentColor"/>
</g>
<g transform="translate(3.7937, 48.5421)">
<rect x="47.4866" y="-0.0890" width="1.9587" height="0.1781" ry="0.0890" fill="currentColor"/>
</g>
<g transform="translate(3.7937, 49.5421)">
<rect x="47.4866" y="-0.0890" width="1.9587" height="0.1781" ry="0.0890" fill="currentColor"/>
</g>
<g transform="translate(3.7937, 50.5421)">
<rect x="47.4866" y="-0.0890" width="1.9587" height="0.1781" ry="0.0890" fill="currentColor"/>
</g>
<g transform="translate(3.7937, 48.5421)">
<rect x="43.9781" y="-0.0890" width="1.9587" height="0.1781" ry="0.0890" fill="currentColor"/>
</g>
<g transform="translate(3.7937, 49.5421)">
<rect x="43.9781" y="-0.0890" width="1.9587" height="0.1781" ry="0.0890" fill="currentColor"/>
</g>
<g transform="translate(3.7937, 50.5421)">
<rect x="43.9781" y="-0.0890" width="1.9587" height="0.1781" ry="0.0890" fill="currentColor"/>
</g>
<g transform="translate(3.7937, 48.5421)">
<rect x="32.3887" y="-0.0890" width="2.0580" height="0.1781" ry="0.0890" fill="currentColor"/>
</g>
<g transform="translate(3.7937, 49.5421)">
<rect x="32.3887" y="-0.0890" width="2.0580" height="0.1781" ry="0.0890" fill="currentColor"/>
</g>
<g transform="translate(3.7937, 50.5421)">
<rect x="32.3887" y="-0.0890" width="2.0580" height="0.1781" ry="0.0890" fill="currentColor"/>
</g>
<g transform="translate(3.7937, 48.5421)">
<rect x="27.5718" y="-0.0890" width="1.9587" height="0.1781" ry="0.0890" fill="currentColor"/>
</g>
<g transform="translate(3.7937, 49.5421)">
<rect x="27.5718" y="-0.0890" width="1.9587" height="0.1781" ry="0.0890" fill="currentColor"/>
</g>
<g transform="translate(3.7937, 50.5421)">
<rect x="27.5718" y="-0.0890" width="1.9587" height="0.1781" ry="0.0890" fill="currentColor"/>
</g>
<g transform="translate(3.7937, 48.5421)">
<rect x="24.0633" y="-0.0890" width="1.9587" height="0.1781" ry="0.0890" fill="currentColor"/>
</g>
<g transform="translate(3.7937, 49.5421)">
<rect x="24.0633" y="-0.0890" width="1.9587" height="0.1781" ry="0.0890" fill="currentColor"/>
</g>
<g transform="translate(3.7937, 48.5421)">
<rect x="20.5548" y="-0.0890" width="1.9587" height="0.1781" ry="0.0890" fill="currentColor"/>
</g>
<g transform="translate(3.7937, 49.5421)">
<rect x="20.5548" y="-0.0890" width="1.9587" height="0.1781" ry="0.0890" fill="currentColor"/>
</g>
<g transform="translate(3.7937, 48.5421)">
<rect x="17.0463" y="-0.0890" width="1.9587" height="0.1781" ry="0.0890" fill="currentColor"/>
</g>
<g transform="translate(3.7937, 49.5421)">
<rect x="17.0463" y="-0.0890" width="1.9587" height="0.1781" ry="0.0890" fill="currentColor"/>
</g>
<g transform="translate(3.7937, 48.5421)">
<rect x="5.4570" y="-0.0890" width="2.0580" height="0.1781" ry="0.0890" fill="currentColor"/>
</g>
<g transform="translate(3.7937, 49.5421)">
<rect x="5.4570" y="-0.0890" width="2.0580" height="0.1781" ry="0.0890" fill="currentColor"/>
</g>
<g transform="translate(3.7937, 50.5421)">
<rect x="5.4570" y="-0.0890" width="2.0580" height="0.1781" ry="0.0890" fill="currentColor"/>
</g>
<g transform="translate(3.7937, 47.5421)">
<line stroke-linejoin="round" stroke-linecap="round" stroke-width="0.0781" stroke="currentColor" x1="0.0390" y1="0" x2="72.0413" y2="0"/>
</g>
<g transform="translate(3.7937, 46.5421)">
<line stroke-linejoin="round" stroke-linecap="round" stroke-width="0.0781" stroke="currentColor" x1="0.0390" y1="0" x2="72.0413" y2="0"/>
</g>
<g transform="translate(3.7937, 45.5421)">
<line stroke-linejoin="round" stroke-linecap="round" stroke-width="0.0781" stroke="currentColor" x1="0.0390" y1="0" x2="72.0413" y2="0"/>
</g>
<g transform="translate(3.7937, 44.5421)">
<line stroke-linejoin="round" stroke-linecap="round" stroke-width="0.0781" stroke="currentColor" x1="0.0390" y1="0" x2="72.0413" y2="0"/>
</g>
<g transform="translate(3.7937, 43.5421)">
<line stroke-linejoin="round" stroke-linecap="round" stroke-width="0.0781" stroke="currentColor" x1="0.0390" y1="0" x2="72.0413" y2="0"/>
</g>
<g transform="translate(74.3317, 45.0421)">
<path transform="scale(0.0040, -0.0040)" d="M0 0c0 32 25 57 57 57s57 -25 57 -57s-25 -57 -57 -57s-57 25 -57 57z" fill="currentColor"/>
</g>
<g transform="translate(74.3317, 46.0421)">
<path transform="scale(0.0040, -0.0040)" d="M0 0c0 32 25 57 57 57s57 -25 57 -57s-25 -57 -57 -57s-57 25 -57 57z" fill="currentColor"/>
</g>
<g transform="translate(75.4054, 45.5421)">
<rect x="0.0000" y="-2.0000" width="0.4686" height="4.0000" ry="0.0000" fill="currentColor"/>
</g>
<g transform="translate(75.0228, 45.5421)">
<rect x="0.0000" y="-2.0000" width="0.1484" height="4.0000" ry="0.0000" fill="currentColor"/>
</g>
<g transform="translate(62.7589, 45.5421)">
<rect x="0.0000" y="-2.0000" width="0.1484" height="4.0000" ry="0.0000" fill="currentColor"/>
</g>
<g transform="translate(46.9161, 45.5421)">
<rect x="0.0000" y="-2.0000" width="0.1484" height="4.0000" ry="0.0000" fill="currentColor"/>
</g>
<g transform="translate(35.3433, 45.5421)">
<rect x="0.0000" y="-2.0000" width="0.1484" height="4.0000" ry="0.0000" fill="currentColor"/>
</g>
<g transform="translate(19.9844, 45.5421)">
<rect x="0.0000" y="-2.0000" width="0.1484" height="4.0000" ry="0.0000" fill="currentColor"/>
</g>
<g transform="translate(4.5937, 46.5421)">
<path transform="scale(0.0040, -0.0040)" d="M264 -594c47 0 165 26 165 246c0 32 -2 64 -5 96c-5 -1 -44 -8 -89 -8c-193 0 -333 178 -333 372c0 178 133 306 251 440c-27 93 -49 170 -49 345c0 116 55 226 150 295c5 4 11 4 16 0c67 -81 132 -246 132 -359c0 -144 -87 -256 -183 -365c20 -69 39 -138 55 -208
c2 0 7 1 15 1c154 0 254 -127 254 -259c0 -112 -73 -212 -180 -245c3 -36 5 -72 5 -108c0 -19 0 -37 -1 -56c-7 -120 -89 -226 -206 -226c-108 0 -195 87 -195 195c0 58 53 104 112 104c54 0 95 -48 95 -104c0 -52 -43 -95 -95 -95c-12 0 -24 4 -35 9c26 -41 70 -70 121 -70
zM459 -205c71 24 117 92 117 166c0 92 -69 184 -179 193c1 -5 45 -212 62 -359zM71 31c0 -146 142 -251 267 -251c1 0 46 0 82 6c-7 63 -28 201 -64 367c-79 -9 -125 -62 -125 -121c0 -44 26 -92 82 -124c4 -4 7 -9 7 -14c0 -11 -9 -21 -20 -21c-14 0 -125 62 -125 186
c0 88 57 173 158 196c-14 60 -30 119 -46 178c-108 -121 -216 -242 -216 -402zM411 1050c-99 -50 -161 -151 -161 -262c0 -59 11 -123 33 -200c82 97 149 198 149 325c0 35 0 69 -21 137z" fill="currentColor"/>
</g>
<g transform="translate(2.0638, 42.4826)">
<text font-family="serif" font-size="1.7462" text-anchor="start" fill="currentColor">
<tspan>16</tspan>
</text>
</g>
<g transform="translate(9.5937, 50.5421)">
<path transform="scale(0.0040, -0.0040)" d="M316 67c0 23 -18 42 -42 42c-40 0 -209 -113 -237 -147c-7 -8 -10 -19 -10 -29c0 -23 18 -42 42 -42c40 0 209 113 237 147c7 8 10 19 10 29zM265 135c38 0 78 -13 78 -68c0 -27 -19 -111 -76 -150c-19 -13 -85 -52 -189 -52c-38 0 -78 13 -78 68c0 27 19 111 76 150
c19 13 85 52 189 52z" fill="currentColor"/>
</g>
<g transform="translate(8.8457, 53.2958)">
<text font-family="serif" font-size="2.4697" text-anchor="start" fill="currentColor">
<tspan>Ka</tspan>
</text>
</g>
<g transform="translate(10.9150, 45.5421)">
<rect x="-0.0508" y="-0.0000" width="0.1015" height="4.7316" ry="0.0267" fill="currentColor"/>
</g>
<g transform="translate(14.7251, 45.5421)">
<path transform="scale(0.0040, -0.0040)" d="M367 0h-359c-4 0 -8 4 -8 8v140c0 4 4 8 8 8h359c4 0 8 -4 8 -8v-140c0 -4 -4 -8 -8 -8z" fill="currentColor"/>
</g>
<g transform="translate(42.8050, 53.2958)">
<rect x="0.0000" y="-0.5215" width="0.6600" height="0.1015" ry="0.0312" fill="currentColor"/>
</g>
<g transform="translate(34.3116, 53.2958)">
<rect x="0.0000" y="-0.5215" width="0.6600" height="0.1015" ry="0.0312" fill="currentColor"/>
</g>
<g transform="translate(21.1665, 50.0421)">
<path transform="scale(0.0040, -0.0040)" d="M222 135c64 0 104 -35 104 -86c0 -89 -114 -184 -221 -184c-64 0 -105 35 -105 86c0 89 115 184 222 184z" fill="currentColor"/>
</g>
<g transform="translate(20.6585, 53.2958)">
<text font-family="serif" font-size="2.4697" text-anchor="start" fill="currentColor">
<tspan>na</tspan>
</text>
</g>
<g transform="translate(22.4215, 45.5421)">
<rect x="-0.0508" y="-0.0000" width="0.1015" height="4.3033" ry="0.0267" fill="currentColor"/>
</g>
<g transform="translate(24.6750, 50.0421)">
<path transform="scale(0.0040, -0.0040)" d="M222 135c64 0 104 -35 104 -86c0 -89 -114 -184 -221 -184c-64 0 -105 35 -105 86c0 89 115 184 222 184z" fill="currentColor"/>
</g>
<g transform="translate(24.1670, 53.2958)">
<text font-family="serif" font-size="2.4697" text-anchor="start" fill="currentColor">
<tspan>ka</tspan>
</text>
</g>
<g transform="translate(25.9300, 45.5421)">
<rect x="-0.0508" y="-0.0000" width="0.1015" height="4.3033" ry="0.0267" fill="currentColor"/>
</g>
<g transform="translate(26.5985, 53.2958)">
<rect x="0.0000" y="-0.5215" width="0.6600" height="0.1015" ry="0.0312" fill="currentColor"/>
</g>
<g transform="translate(28.1835, 50.0421)">
<path transform="scale(0.0040, -0.0040)" d="M222 135c64 0 104 -35 104 -86c0 -89 -114 -184 -221 -184c-64 0 -105 35 -105 86c0 89 115 184 222 184z" fill="currentColor"/>
</g>
<g transform="translate(27.3682, 53.2958)">
<text font-family="serif" font-size="2.4697" text-anchor="start" fill="currentColor">
<tspan>na,</tspan>
</text>
</g>
<g transform="translate(29.4385, 45.5421)">
<rect x="-0.0508" y="-0.0000" width="0.1015" height="4.3033" ry="0.0267" fill="currentColor"/>
</g>
<g transform="translate(23.2436, 53.2958)">
<rect x="0.0000" y="-0.5215" width="0.6600" height="0.1015" ry="0.0312" fill="currentColor"/>
</g>
<g transform="translate(31.6920, 50.5421)">
<path transform="scale(0.0040, -0.0040)" d="M222 135c64 0 104 -35 104 -86c0 -89 -114 -184 -221 -184c-64 0 -105 35 -105 86c0 89 115 184 222 184z" fill="currentColor"/>
</g>
<g transform="translate(31.3889, 53.2958)">
<text font-family="serif" font-size="2.4697" text-anchor="start" fill="currentColor">
<tspan>tu</tspan>
</text>
</g>
<g transform="translate(32.9470, 45.5421)">
<rect x="-0.0508" y="-0.0000" width="0.1015" height="4.8033" ry="0.0267" fill="currentColor"/>
</g>
<g transform="translate(15.8561, 53.2958)">
<rect x="0.0000" y="-0.5215" width="0.6600" height="0.1015" ry="0.0312" fill="currentColor"/>
</g>
<g transform="translate(36.5255, 50.5421)">
<path transform="scale(0.0040, -0.0040)" d="M316 67c0 23 -18 42 -42 42c-40 0 -209 -113 -237 -147c-7 -8 -10 -19 -10 -29c0 -23 18 -42 42 -42c40 0 209 113 237 147c7 8 10 19 10 29zM265 135c38 0 78 -13 78 -68c0 -27 -19 -111 -76 -150c-19 -13 -85 -52 -189 -52c-38 0 -78 13 -78 68c0 27 19 111 76 150
c19 13 85 52 189 52z" fill="currentColor"/>
</g>
<g transform="translate(35.9823, 53.2958)">
<text font-family="serif" font-size="2.4697" text-anchor="start" fill="currentColor">
<tspan>lie</tspan>
</text>
</g>
<g transform="translate(37.8467, 45.5421)">
<rect x="-0.0508" y="-0.0000" width="0.1015" height="4.7316" ry="0.0267" fill="currentColor"/>
</g>
<g transform="translate(41.6568, 45.5421)">
<path transform="scale(0.0040, -0.0040)" d="M367 0h-359c-4 0 -8 4 -8 8v140c0 4 4 8 8 8h359c4 0 8 -4 8 -8v-140c0 -4 -4 -8 -8 -8z" fill="currentColor"/>
</g>
<g transform="translate(48.0982, 50.5421)">
<path transform="scale(0.0040, -0.0040)" d="M222 135c64 0 104 -35 104 -86c0 -89 -114 -184 -221 -184c-64 0 -105 35 -105 86c0 89 115 184 222 184z" fill="currentColor"/>
</g>
<g transform="translate(47.8293, 53.2958)">
<text font-family="serif" font-size="2.4697" text-anchor="start" fill="currentColor">
<tspan>o.</tspan>
</text>
</g>
<g transform="translate(49.3533, 45.5421)">
<rect x="-0.0508" y="-0.0000" width="0.1015" height="4.8033" ry="0.0267" fill="currentColor"/>
</g>
<g transform="translate(51.6067, 50.5421)">
<path transform="scale(0.0040, -0.0040)" d="M222 135c64 0 104 -35 104 -86c0 -89 -114 -184 -221 -184c-64 0 -105 35 -105 86c0 89 115 184 222 184z" fill="currentColor"/>
</g>
<g transform="translate(50.9850, 53.2958)">
<text font-family="serif" font-size="2.4697" text-anchor="start" fill="currentColor">
<tspan>To</tspan>
</text>
</g>
<g transform="translate(52.8618, 45.5421)">
<rect x="-0.0508" y="-0.0000" width="0.1015" height="4.8033" ry="0.0267" fill="currentColor"/>
</g>
<g transform="translate(55.1152, 50.5421)">
<path transform="scale(0.0040, -0.0040)" d="M222 135c64 0 104 -35 104 -86c0 -89 -114 -184 -221 -184c-64 0 -105 35 -105 86c0 89 115 184 222 184z" fill="currentColor"/>
</g>
<g transform="translate(53.7878, 53.2958)">
<text font-family="serif" font-size="2.4697" text-anchor="start" fill="currentColor">
<tspan>mor</tspan>
</text>
</g>
<g transform="translate(56.3703, 45.5421)">
<rect x="-0.0508" y="-0.0000" width="0.1015" height="4.8033" ry="0.0267" fill="currentColor"/>
</g>
<g transform="translate(59.1076, 50.0421)">
<path transform="scale(0.0040, -0.0040)" d="M222 135c64 0 104 -35 104 -86c0 -89 -114 -184 -221 -184c-64 0 -105 35 -105 86c0 89 115 184 222 184z" fill="currentColor"/>
</g>
<g transform="translate(57.8485, 53.2958)">
<text font-family="serif" font-size="2.4697" text-anchor="start" fill="currentColor">
<tspan>row</tspan>
</text>
</g>
<g transform="translate(60.3626, 45.5421)">
<rect x="-0.0508" y="-0.0000" width="0.1015" height="4.3033" ry="0.0267" fill="currentColor"/>
</g>
<g transform="translate(63.9410, 51.0421)">
<path transform="scale(0.0040, -0.0040)" d="M316 67c0 23 -18 42 -42 42c-40 0 -209 -113 -237 -147c-7 -8 -10 -19 -10 -29c0 -23 18 -42 42 -42c40 0 209 113 237 147c7 8 10 19 10 29zM265 135c38 0 78 -13 78 -68c0 -27 -19 -111 -76 -150c-19 -13 -85 -52 -189 -52c-38 0 -78 13 -78 68c0 27 19 111 76 150
c19 13 85 52 189 52z" fill="currentColor"/>
</g>
<g transform="translate(63.1930, 53.2958)">
<text font-family="serif" font-size="2.4697" text-anchor="start" fill="currentColor">
<tspan>we</tspan>
</text>
</g>
<g transform="translate(65.2623, 45.5421)">
<rect x="-0.0508" y="-0.0000" width="0.1015" height="5.2316" ry="0.0267" fill="currentColor"/>
</g>
<g transform="translate(69.0724, 45.5421)">
<path transform="scale(0.0040, -0.0040)" d="M367 0h-359c-4 0 -8 4 -8 8v140c0 4 4 8 8 8h359c4 0 8 -4 8 -8v-140c0 -4 -4 -8 -8 -8z" fill="currentColor"/>
</g>
<g transform="translate(3.7937, 60.5421)">
<rect x="63.9716" y="-0.0890" width="1.9587" height="0.1781" ry="0.0890" fill="currentColor"/>
</g>
<g transform="translate(3.7937, 61.5421)">
<rect x="63.9716" y="-0.0890" width="1.9587" height="0.1781" ry="0.0890" fill="currentColor"/>
</g>
<g transform="translate(3.7937, 62.5421)">
<rect x="63.9716" y="-0.0890" width="1.9587" height="0.1781" ry="0.0890" fill="currentColor"/>
</g>
<g transform="translate(3.7937, 60.5421)">
<rect x="60.5781" y="-0.0890" width="1.9587" height="0.1781" ry="0.0890" fill="currentColor"/>
</g>
<g transform="translate(3.7937, 61.5421)">
<rect x="60.5781" y="-0.0890" width="1.9587" height="0.1781" ry="0.0890" fill="currentColor"/>
</g>
<g transform="translate(3.7937, 60.5421)">
<rect x="56.9347" y="-0.0890" width="1.9587" height="0.1781" ry="0.0890" fill="currentColor"/>
</g>
<g transform="translate(3.7937, 61.5421)">
<rect x="56.9347" y="-0.0890" width="1.9587" height="0.1781" ry="0.0890" fill="currentColor"/>
</g>
<g transform="translate(3.7937, 62.5421)">
<rect x="56.9347" y="-0.0890" width="1.9587" height="0.1781" ry="0.0890" fill="currentColor"/>
</g>
<g transform="translate(3.7937, 60.5421)">
<rect x="51.9305" y="-0.0890" width="1.9587" height="0.1781" ry="0.0890" fill="currentColor"/>
</g>
<g transform="translate(3.7937, 61.5421)">
<rect x="51.9305" y="-0.0890" width="1.9587" height="0.1781" ry="0.0890" fill="currentColor"/>
</g>
<g transform="translate(3.7937, 60.5421)">
<rect x="48.2871" y="-0.0890" width="1.9587" height="0.1781" ry="0.0890" fill="currentColor"/>
</g>
<g transform="translate(3.7937, 61.5421)">
<rect x="48.2871" y="-0.0890" width="1.9587" height="0.1781" ry="0.0890" fill="currentColor"/>
</g>
<g transform="translate(3.7937, 60.5421)">
<rect x="44.6436" y="-0.0890" width="1.9587" height="0.1781" ry="0.0890" fill="currentColor"/>
</g>
<g transform="translate(3.7937, 61.5421)">
<rect x="44.6436" y="-0.0890" width="1.9587" height="0.1781" ry="0.0890" fill="currentColor"/>
</g>
<g transform="translate(3.7937, 60.5421)">
<rect x="40.7502" y="-0.0890" width="1.9587" height="0.1781" ry="0.0890" fill="currentColor"/>
</g>
<g transform="translate(3.7937, 61.5421)">
<rect x="40.7502" y="-0.0890" width="1.9587" height="0.1781" ry="0.0890" fill="currentColor"/>
</g>
<g transform="translate(3.7937, 62.5421)">
<rect x="40.7502" y="-0.0890" width="1.9587" height="0.1781" ry="0.0890" fill="currentColor"/>
</g>
<g transform="translate(3.7937, 60.5421)">
<rect x="32.6012" y="-0.0890" width="1.9587" height="0.1781" ry="0.0890" fill="currentColor"/>
</g>
<g transform="translate(3.7937, 61.5421)">
<rect x="32.6012" y="-0.0890" width="1.9587" height="0.1781" ry="0.0890" fill="currentColor"/>
</g>
<g transform="translate(3.7937, 62.5421)">
<rect x="32.6012" y="-0.0890" width="1.9587" height="0.1781" ry="0.0890" fill="currentColor"/>
</g>
<g transform="translate(3.7937, 60.5421)">
<rect x="27.8150" y="-0.0890" width="1.9587" height="0.1781" ry="0.0890" fill="currentColor"/>
</g>
<g transform="translate(3.7937, 61.5421)">
<rect x="27.8150" y="-0.0890" width="1.9587" height="0.1781" ry="0.0890" fill="currentColor"/>
</g>
<g transform="translate(3.7937, 60.5421)">
<rect x="24.1716" y="-0.0890" width="1.9587" height="0.1781" ry="0.0890" fill="currentColor"/>
</g>
<g transform="translate(3.7937, 61.5421)">
<rect x="24.1716" y="-0.0890" width="1.9587" height="0.1781" ry="0.0890" fill="currentColor"/>
</g>
<g transform="translate(3.7937, 62.5421)">
<rect x="24.1716" y="-0.0890" width="1.9587" height="0.1781" ry="0.0890" fill="currentColor"/>
</g>
<g transform="translate(3.7937, 60.5421)">
<rect x="19.1674" y="-0.0890" width="1.9587" height="0.1781" ry="0.0890" fill="currentColor"/>
</g>
<g transform="translate(3.7937, 61.5421)">
<rect x="19.1674" y="-0.0890" width="1.9587" height="0.1781" ry="0.0890" fill="currentColor"/>
</g>
<g transform="translate(3.7937, 60.5421)">
<rect x="15.5240" y="-0.0890" width="1.9587" height="0.1781" ry="0.0890" fill="currentColor"/>
</g>
<g transform="translate(3.7937, 61.5421)">
<rect x="15.5240" y="-0.0890" width="1.9587" height="0.1781" ry="0.0890" fill="currentColor"/>
</g>
<g transform="translate(3.7937, 60.5421)">
<rect x="10.6695" y="-0.0890" width="1.9587" height="0.1781" ry="0.0890" fill="currentColor"/>
</g>
<g transform="translate(3.7937, 61.5421)">
<rect x="10.6695" y="-0.0890" width="1.9587" height="0.1781" ry="0.0890" fill="currentColor"/>
</g>
<g transform="translate(3.7937, 60.5421)">
<rect x="5.4735" y="-0.0890" width="1.9587" height="0.1781" ry="0.0890" fill="currentColor"/>
</g>
<g transform="translate(3.7937, 61.5421)">
<rect x="5.4735" y="-0.0890" width="1.9587" height="0.1781" ry="0.0890" fill="currentColor"/>
</g>
<g transform="translate(3.7937, 62.5421)">
<rect x="5.4735" y="-0.0890" width="1.9587" height="0.1781" ry="0.0890" fill="currentColor"/>
</g>
<g transform="translate(3.7937, 59.5421)">
<line stroke-linejoin="round" stroke-linecap="round" stroke-width="0.0781" stroke="currentColor" x1="0.0390" y1="0" x2="72.0413" y2="0"/>
</g>
<g transform="translate(3.7937, 58.5421)">
<line stroke-linejoin="round" stroke-linecap="round" stroke-width="0.0781" stroke="currentColor" x1="0.0390" y1="0" x2="72.0413" y2="0"/>
</g>
<g transform="translate(3.7937, 57.5421)">
<line stroke-linejoin="round" stroke-linecap="round" stroke-width="0.0781" stroke="currentColor" x1="0.0390" y1="0" x2="72.0413" y2="0"/>
</g>
<g transform="translate(3.7937, 56.5421)">
<line stroke-linejoin="round" stroke-linecap="round" stroke-width="0.0781" stroke="currentColor" x1="0.0390" y1="0" x2="72.0413" y2="0"/>
</g>
<g transform="translate(3.7937, 55.5421)">
<line stroke-linejoin="round" stroke-linecap="round" stroke-width="0.0781" stroke="currentColor" x1="0.0390" y1="0" x2="72.0413" y2="0"/>
</g>
<g transform="translate(75.4054, 57.5421)">
<rect x="0.0000" y="-2.0000" width="0.4686" height="4.0000" ry="0.0000" fill="currentColor"/>
</g>
<g transform="translate(75.0228, 57.5421)">
<rect x="0.0000" y="-2.0000" width="0.1484" height="4.0000" ry="0.0000" fill="currentColor"/>
</g>
<g transform="translate(59.8369, 57.5421)">
<rect x="0.0000" y="-2.0000" width="0.1484" height="4.0000" ry="0.0000" fill="currentColor"/>
</g>
<g transform="translate(43.6524, 57.5421)">
<rect x="0.0000" y="-2.0000" width="0.1484" height="4.0000" ry="0.0000" fill="currentColor"/>
</g>
<g transform="translate(27.0738, 57.5421)">
<rect x="0.0000" y="-2.0000" width="0.1484" height="4.0000" ry="0.0000" fill="currentColor"/>
</g>
<g transform="translate(66.8715, 65.7958)">
<rect x="0.0000" y="-0.5215" width="0.6600" height="0.1015" ry="0.0312" fill="currentColor"/>
</g>
<g transform="translate(4.5937, 58.5421)">
<path transform="scale(0.0040, -0.0040)" d="M264 -594c47 0 165 26 165 246c0 32 -2 64 -5 96c-5 -1 -44 -8 -89 -8c-193 0 -333 178 -333 372c0 178 133 306 251 440c-27 93 -49 170 -49 345c0 116 55 226 150 295c5 4 11 4 16 0c67 -81 132 -246 132 -359c0 -144 -87 -256 -183 -365c20 -69 39 -138 55 -208
c2 0 7 1 15 1c154 0 254 -127 254 -259c0 -112 -73 -212 -180 -245c3 -36 5 -72 5 -108c0 -19 0 -37 -1 -56c-7 -120 -89 -226 -206 -226c-108 0 -195 87 -195 195c0 58 53 104 112 104c54 0 95 -48 95 -104c0 -52 -43 -95 -95 -95c-12 0 -24 4 -35 9c26 -41 70 -70 121 -70
zM459 -205c71 24 117 92 117 166c0 92 -69 184 -179 193c1 -5 45 -212 62 -359zM71 31c0 -146 142 -251 267 -251c1 0 46 0 82 6c-7 63 -28 201 -64 367c-79 -9 -125 -62 -125 -121c0 -44 26 -92 82 -124c4 -4 7 -9 7 -14c0 -11 -9 -21 -20 -21c-14 0 -125 62 -125 186
c0 88 57 173 158 196c-14 60 -30 119 -46 178c-108 -121 -216 -242 -216 -402zM411 1050c-99 -50 -161 -151 -161 -262c0 -59 11 -123 33 -200c82 97 149 198 149 325c0 35 0 69 -21 137z" fill="currentColor"/>
</g>
<g transform="translate(2.0638, 54.5031)">
<text font-family="serif" font-size="1.7462" text-anchor="start" fill="currentColor">
<tspan>21</tspan>
</text>
</g>
<g transform="translate(63.0629, 65.7958)">
<rect x="0.0000" y="-0.5215" width="0.6600" height="0.1015" ry="0.0312" fill="currentColor"/>
</g>
<g transform="translate(9.5937, 63.0421)">
<path transform="scale(0.0040, -0.0040)" d="M222 135c64 0 104 -35 104 -86c0 -89 -114 -184 -221 -184c-64 0 -105 35 -105 86c0 89 115 184 222 184z" fill="currentColor"/>
</g>
<g transform="translate(8.3346, 65.7958)">
<text font-family="serif" font-size="2.4697" text-anchor="start" fill="currentColor">
<tspan>will</tspan>
</text>
</g>
<g transform="translate(10.8487, 57.5421)">
<rect x="-0.0508" y="-0.0000" width="0.1015" height="5.3033" ry="0.0267" fill="currentColor"/>
</g>
<g transform="translate(14.7896, 62.0421)">
<path transform="scale(0.0040, -0.0040)" d="M222 135c64 0 104 -35 104 -86c0 -89 -114 -184 -221 -184c-64 0 -105 35 -105 86c0 89 115 184 222 184z" fill="currentColor"/>
</g>
<g transform="translate(12.6086, 65.7958)">
<text font-family="serif" font-size="2.4697" text-anchor="start" fill="currentColor">
<tspan>work,</tspan>
</text>
</g>
<g transform="translate(16.0447, 57.5421)">
<rect x="-0.0508" y="-0.0000" width="0.1015" height="4.3033" ry="0.0267" fill="currentColor"/>
</g>
<g transform="translate(54.3982, 65.7958)">
<rect x="0.0000" y="-0.5215" width="0.6600" height="0.1015" ry="0.0312" fill="currentColor"/>
</g>
<g transform="translate(19.6441, 61.5421)">
<path transform="scale(0.0040, -0.0040)" d="M222 135c64 0 104 -35 104 -86c0 -89 -114 -184 -221 -184c-64 0 -105 35 -105 86c0 89 115 184 222 184z" fill="currentColor"/>
</g>
<g transform="translate(18.7264, 65.7958)">
<text font-family="serif" font-size="2.4697" text-anchor="start" fill="currentColor">
<tspan>but</tspan>
</text>
</g>
<g transform="translate(20.8992, 57.5421)">
<rect x="-0.0508" y="-0.0000" width="0.1015" height="3.8033" ry="0.0267" fill="currentColor"/>
</g>
<g transform="translate(50.9084, 65.7958)">
<rect x="0.0000" y="-0.5215" width="0.6600" height="0.1015" ry="0.0312" fill="currentColor"/>
</g>
<g transform="translate(23.2875, 62.0421)">
<path transform="scale(0.0040, -0.0040)" d="M222 135c64 0 104 -35 104 -86c0 -89 -114 -184 -221 -184c-64 0 -105 35 -105 86c0 89 115 184 222 184z" fill="currentColor"/>
</g>
<g transform="translate(22.3699, 65.7958)">
<text font-family="serif" font-size="2.4697" text-anchor="start" fill="currentColor">
<tspan>not</tspan>
</text>
</g>
<g transform="translate(24.5426, 57.5421)">
<rect x="-0.0508" y="-0.0000" width="0.1015" height="4.3033" ry="0.0267" fill="currentColor"/>
</g>
<g transform="translate(47.2765, 65.7958)">
<rect x="0.0000" y="-0.5215" width="0.6600" height="0.1015" ry="0.0312" fill="currentColor"/>
</g>
<g transform="translate(28.2917, 62.5421)">
<path transform="scale(0.0040, -0.0040)" d="M222 135c64 0 104 -35 104 -86c0 -89 -114 -184 -221 -184c-64 0 -105 35 -105 86c0 89 115 184 222 184z" fill="currentColor"/>
</g>
<g transform="translate(27.9886, 65.7958)">
<text font-family="serif" font-size="2.4697" text-anchor="start" fill="currentColor">
<tspan>to</tspan>
</text>
</g>
<g transform="translate(29.5468, 57.5421)">
<rect x="-0.0508" y="-0.0000" width="0.1015" height="4.8033" ry="0.0267" fill="currentColor"/>
</g>
<g transform="translate(31.9352, 62.0421)">
<path transform="scale(0.0040, -0.0040)" d="M222 135c64 0 104 -35 104 -86c0 -89 -114 -184 -221 -184c-64 0 -105 35 -105 86c0 89 115 184 222 184z" fill="currentColor"/>
</g>
<g transform="translate(30.5736, 65.7958)">
<text font-family="serif" font-size="2.4697" text-anchor="start" fill="currentColor">
<tspan>day,</tspan>
</text>
</g>
<g transform="translate(33.1902, 57.5421)">
<rect x="-0.0508" y="-0.0000" width="0.1015" height="4.3033" ry="0.0267" fill="currentColor"/>
</g>
<g transform="translate(29.9706, 65.7958)">
<rect x="0.0000" y="-0.5215" width="0.5330" height="0.1015" ry="0.0312" fill="currentColor"/>
</g>
<g transform="translate(36.7214, 63.0421)">
<path transform="scale(0.0040, -0.0040)" d="M222 135c64 0 104 -35 104 -86c0 -89 -114 -184 -221 -184c-64 0 -105 35 -105 86c0 89 115 184 222 184z" fill="currentColor"/>
</g>
<g transform="translate(35.0525, 65.7958)">
<text font-family="serif" font-size="2.4697" text-anchor="start" fill="currentColor">
<tspan>John</tspan>
</text>
</g>
<g transform="translate(37.9764, 57.5421)">
<rect x="-0.0508" y="-0.0000" width="0.1015" height="5.3033" ry="0.0267" fill="currentColor"/>
</g>
<g transform="translate(40.3648, 57.5421)">
<path transform="scale(0.0040, -0.0040)" d="M-4 79c0 59 125 82 125 181c0 24 -8 47 -24 67l-39 46c-2 3 -3 6 -3 9c0 7 7 14 14 14c3 0 7 -1 10 -5l152 -182c7 -8 10 -17 10 -25c0 -59 -125 -82 -125 -181c0 -24 8 -47 24 -67l87 -104c2 -3 3 -5 3 -8c0 -7 -7 -14 -14 -14c-6 0 -48 48 -112 48
c-14 0 -52 -1 -52 -70c0 -35 11 -75 28 -96c6 -7 -4 -16 -10 -9c-46 55 -93 150 -93 204c0 12 0 40 36 40c34 0 85 -15 130 -37l-137 164c-7 8 -10 17 -10 25z" fill="currentColor"/>
</g>
<g transform="translate(44.8703, 63.0421)">
<path transform="scale(0.0040, -0.0040)" d="M222 135c64 0 104 -35 104 -86c0 -89 -114 -184 -221 -184c-64 0 -105 35 -105 86c0 89 115 184 222 184z" fill="currentColor"/>
</g>
<g transform="translate(44.0892, 65.7958)">
<text font-family="serif" font-size="2.4697" text-anchor="start" fill="currentColor">
<tspan>Ka</tspan>
</text>
</g>
<g transform="translate(46.1254, 57.5421)">
<rect x="-0.0508" y="-0.0000" width="0.1015" height="5.3033" ry="0.0267" fill="currentColor"/>
</g>
<g transform="translate(48.7638, 62.0421)">
<path transform="scale(0.0040, -0.0040)" d="M222 135c64 0 104 -35 104 -86c0 -89 -114 -184 -221 -184c-64 0 -105 35 -105 86c0 89 115 184 222 184z" fill="currentColor"/>
</g>
<g transform="translate(48.2558, 65.7958)">
<text font-family="serif" font-size="2.4697" text-anchor="start" fill="currentColor">
<tspan>na</tspan>
</text>
</g>
<g transform="translate(50.0188, 57.5421)">
<rect x="-0.0508" y="-0.0000" width="0.1015" height="4.3033" ry="0.0267" fill="currentColor"/>
</g>
<g transform="translate(52.4072, 61.5421)">
<path transform="scale(0.0040, -0.0040)" d="M222 135c64 0 104 -35 104 -86c0 -89 -114 -184 -221 -184c-64 0 -105 35 -105 86c0 89 115 184 222 184z" fill="currentColor"/>
</g>
<g transform="translate(51.8992, 65.7958)">
<text font-family="serif" font-size="2.4697" text-anchor="start" fill="currentColor">
<tspan>ka</tspan>
</text>
</g>
<g transform="translate(53.6622, 57.5421)">
<rect x="-0.0508" y="-0.0000" width="0.1015" height="3.8033" ry="0.0267" fill="currentColor"/>
</g>
<g transform="translate(56.0506, 62.0421)">
<path transform="scale(0.0040, -0.0040)" d="M222 135c64 0 104 -35 104 -86c0 -89 -114 -184 -221 -184c-64 0 -105 35 -105 86c0 89 115 184 222 184z" fill="currentColor"/>
</g>
<g transform="translate(55.2354, 65.7958)">
<text font-family="serif" font-size="2.4697" text-anchor="start" fill="currentColor">
<tspan>na,</tspan>
</text>
</g>
<g transform="translate(57.3057, 57.5421)">
<rect x="-0.0508" y="-0.0000" width="0.1015" height="4.3033" ry="0.0267" fill="currentColor"/>
</g>
<g transform="translate(61.0548, 62.5421)">
<path transform="scale(0.0040, -0.0040)" d="M222 135c64 0 104 -35 104 -86c0 -89 -114 -184 -221 -184c-64 0 -105 35 -105 86c0 89 115 184 222 184z" fill="currentColor"/>
</g>
<g transform="translate(60.7517, 65.7958)">
<text font-family="serif" font-size="2.4697" text-anchor="start" fill="currentColor">
<tspan>tu</tspan>
</text>
</g>
<g transform="translate(62.3099, 57.5421)">
<rect x="-0.0508" y="-0.0000" width="0.1015" height="4.8033" ry="0.0267" fill="currentColor"/>
</g>
<g transform="translate(64.6983, 62.0421)">
<path transform="scale(0.0040, -0.0040)" d="M222 135c64 0 104 -35 104 -86c0 -89 -114 -184 -221 -184c-64 0 -105 35 -105 86c0 89 115 184 222 184z" fill="currentColor"/>
</g>
<g transform="translate(64.1220, 65.7958)">
<text font-family="serif" font-size="2.4697" text-anchor="start" fill="currentColor">
<tspan>lie</tspan>
</text>
</g>
<g transform="translate(65.9533, 57.5421)">
<rect x="-0.0508" y="-0.0000" width="0.1015" height="4.3033" ry="0.0267" fill="currentColor"/>
</g>
<g transform="translate(68.0917, 63.0421)">
<path transform="scale(0.0040, -0.0040)" d="M222 135c64 0 104 -35 104 -86c0 -89 -114 -184 -221 -184c-64 0 -105 35 -105 86c0 89 115 184 222 184z" fill="currentColor"/>
</g>
<g transform="translate(67.8227, 65.7958)">
<text font-family="serif" font-size="2.4697" text-anchor="start" fill="currentColor">
<tspan>o.</tspan>
</text>
</g>
<g transform="translate(69.3467, 57.5421)">
<rect x="-0.0508" y="-0.0000" width="0.1015" height="5.3033" ry="0.0267" fill="currentColor"/>
</g>
<g transform="translate(71.7351, 57.5421)">
<path transform="scale(0.0040, -0.0040)" d="M-4 79c0 59 125 82 125 181c0 24 -8 47 -24 67l-39 46c-2 3 -3 6 -3 9c0 7 7 14 14 14c3 0 7 -1 10 -5l152 -182c7 -8 10 -17 10 -25c0 -59 -125 -82 -125 -181c0 -24 8 -47 24 -67l87 -104c2 -3 3 -5 3 -8c0 -7 -7 -14 -14 -14c-6 0 -48 48 -112 48
c-14 0 -52 -1 -52 -70c0 -35 11 -75 28 -96c6 -7 -4 -16 -10 -9c-46 55 -93 150 -93 204c0 12 0 40 36 40c34 0 85 -15 130 -37l-137 164c-7 8 -10 17 -10 25z" fill="currentColor"/>
</g>
</svg>
